ISO-10303-21;
HEADER;
FILE_DESCRIPTION (( 'STEP AP214' ),
    '1' );
FILE_NAME ('ERA-3+.STEP',
    '2024-11-11T08:04:11',
    ( '' ),
    ( '' ),
    'SwSTEP 2.0',
    'SolidWorks 2016',
    '' );
FILE_SCHEMA (( 'AUTOMOTIVE_DESIGN' ));
ENDSEC;

DATA;
#1 = SURFACE_SIDE_STYLE ('',( #568 ) ) ;
#2 = UNCERTAINTY_MEASURE_WITH_UNIT (LENGTH_MEASURE( 1.000000000000000100E-005 ), #964, 'distance_accuracy_value', 'NONE');
#3 = VECTOR ( 'NONE', #6, 1000.000000000000000 ) ;
#4 = ORIENTED_EDGE ( 'NONE', *, *, #644, .T. ) ;
#5 = CARTESIAN_POINT ( 'NONE',  ( -0.2550000000000003400, 0.0000000000000000000, 2.880551362713288800 ) ) ;
#6 = DIRECTION ( 'NONE',  ( 1.000000000000000000, 0.0000000000000000000, 0.0000000000000000000 ) ) ;
#7 = PLANE ( 'NONE',  #914 ) ;
#8 = MECHANICAL_DESIGN_GEOMETRIC_PRESENTATION_REPRESENTATION (  '', ( #283 ), #426 ) ;
#9 = ORIENTED_EDGE ( 'NONE', *, *, #50, .T. ) ;
#10 = DIRECTION ( 'NONE',  ( -0.0000000000000000000, -1.000000000000000000, -0.0000000000000000000 ) ) ;
#11 = VERTEX_POINT ( 'NONE', #875 ) ;
#13 =( LENGTH_UNIT ( ) NAMED_UNIT ( * ) SI_UNIT ( .MILLI., .METRE. ) );
#12 = CARTESIAN_POINT ( 'NONE',  ( 0.0000000000000000000, 0.0000000000000000000, 0.0000000000000000000 ) ) ;
#14 = VECTOR ( 'NONE', #177, 1000.000000000000000 ) ;
#15 = CARTESIAN_POINT ( 'NONE',  ( 0.0000000000000000000, 0.1999999999999999800, 0.0000000000000000000 ) ) ;
#17 = SURFACE_STYLE_USAGE ( .BOTH. , #106 ) ;
#16 = DIRECTION ( 'NONE',  ( 1.000000000000000000, 0.0000000000000000000, 0.0000000000000000000 ) ) ;
#18 = CARTESIAN_POINT ( 'NONE',  ( 0.2550000000000000000, 1.050000000000000000, -1.049464148982708600 ) ) ;
#19 = ORIENTED_EDGE ( 'NONE', *, *, #577, .T. ) ;
#20 = SURFACE_SIDE_STYLE ('',( #362 ) ) ;
#22 = CARTESIAN_POINT ( 'NONE',  ( 2.149136051654014900E-017, 1.050000000000000000, 0.4705878952284893200 ) ) ;
#21 = DIRECTION ( 'NONE',  ( 0.0000000000000000000, 1.000000000000000000, 0.0000000000000000000 ) ) ;
#23 = AXIS2_PLACEMENT_3D ( 'NONE', #690, #407, #183 ) ;
#24 = ORIENTED_EDGE ( 'NONE', *, *, #865, .F. ) ;
#25 = ORIENTED_EDGE ( 'NONE', *, *, #612, .F. ) ;
#26 =( GEOMETRIC_REPRESENTATION_CONTEXT ( 3 ) GLOBAL_UNCERTAINTY_ASSIGNED_CONTEXT ( ( #324 ) ) GLOBAL_UNIT_ASSIGNED_CONTEXT ( ( #1023, #65, #729 ) ) REPRESENTATION_CONTEXT ( 'NONE', 'WORKASPACE' ) );
#27 = FACE_BOUND ( 'NONE', #310, .T. ) ;
#28 = EDGE_LOOP ( 'NONE', ( #1068, #72, #431, #726, #372 ) ) ;
#29 = DIRECTION ( 'NONE',  ( 0.0000000000000000000, 0.0000000000000000000, 1.000000000000000000 ) ) ;
#30 = DIRECTION ( 'NONE',  ( -0.0000000000000000000, -1.000000000000000000, -0.0000000000000000000 ) ) ;
#31 = DIRECTION ( 'NONE',  ( -1.000000000000000000, 0.0000000000000000000, 0.0000000000000000000 ) ) ;
#32 = ADVANCED_FACE ( 'NONE', ( #41 ), #974, .F. ) ;
#33 = DIRECTION ( 'NONE',  ( -0.0000000000000000000, -1.000000000000000000, -0.0000000000000000000 ) ) ;
#34 =( NAMED_UNIT ( * ) SI_UNIT ( $, .STERADIAN. ) SOLID_ANGLE_UNIT ( ) );
#35 = CIRCLE ( 'NONE', #1258, 1.080000000000000300 ) ;
#36 = SURFACE_SIDE_STYLE ('',( #458 ) ) ;
#37 = AXIS2_PLACEMENT_3D ( 'NONE', #930, #1030, #340 ) ;
#38 = CARTESIAN_POINT ( 'NONE',  ( 0.0000000000000000000, -0.4699999999999999700, 0.0000000000000000000 ) ) ;
#39 = ORIENTED_EDGE ( 'NONE', *, *, #1205, .T. ) ;
#40 = VERTEX_POINT ( 'NONE', #483 ) ;
#41 = FACE_OUTER_BOUND ( 'NONE', #145, .T. ) ;
#42 = MECHANICAL_DESIGN_GEOMETRIC_PRESENTATION_REPRESENTATION (  '', ( #927 ), #319 ) ;
#43 = ORIENTED_EDGE ( 'NONE', *, *, #284, .F. ) ;
#44 = ADVANCED_FACE ( 'NONE', ( #720 ), #7, .F. ) ;
#45 = PLANE ( 'NONE',  #606 ) ;
#46 = EDGE_LOOP ( 'NONE', ( #1144, #24, #554, #9 ) ) ;
#47 = DIRECTION ( 'NONE',  ( 0.0000000000000000000, 1.000000000000000000, 0.0000000000000000000 ) ) ;
#48 = UNCERTAINTY_MEASURE_WITH_UNIT (LENGTH_MEASURE( 1.000000000000000100E-005 ), #944, 'distance_accuracy_value', 'NONE');
#49 =( GEOMETRIC_REPRESENTATION_CONTEXT ( 3 ) GLOBAL_UNCERTAINTY_ASSIGNED_CONTEXT ( ( #1079 ) ) GLOBAL_UNIT_ASSIGNED_CONTEXT ( ( #1055, #89, #1076 ) ) REPRESENTATION_CONTEXT ( 'NONE', 'WORKASPACE' ) );
#50 = EDGE_CURVE ( 'NONE', #433, #403, #121, .T. ) ;
#51 = MECHANICAL_DESIGN_GEOMETRIC_PRESENTATION_REPRESENTATION (  '', ( #735 ), #111 ) ;
#52 = AXIS2_PLACEMENT_3D ( 'NONE', #652, #543, #744 ) ;
#53 = EDGE_LOOP ( 'NONE', ( #1046, #229, #421, #572 ) ) ;
#54 =( LENGTH_UNIT ( ) NAMED_UNIT ( * ) SI_UNIT ( .MILLI., .METRE. ) );
#55 = COLOUR_RGB ( '',1.000000000000000000, 1.000000000000000000, 1.000000000000000000 ) ;
#56 = EDGE_LOOP ( 'NONE', ( #406, #4, #650, #308 ) ) ;
#57 = SURFACE_SIDE_STYLE ('',( #1031 ) ) ;
#58 = PRESENTATION_STYLE_ASSIGNMENT (( #453 ) ) ;
#59 = SURFACE_STYLE_USAGE ( .BOTH. , #242 ) ;
#60 =( GEOMETRIC_REPRESENTATION_CONTEXT ( 3 ) GLOBAL_UNCERTAINTY_ASSIGNED_CONTEXT ( ( #2 ) ) GLOBAL_UNIT_ASSIGNED_CONTEXT ( ( #964, #476, #564 ) ) REPRESENTATION_CONTEXT ( 'NONE', 'WORKASPACE' ) );
#61 = ORIENTED_EDGE ( 'NONE', *, *, #1180, .F. ) ;
#62 = CARTESIAN_POINT ( 'NONE',  ( 1.230770033143090300E-016, -0.4699999999999999700, -0.9300000000000002700 ) ) ;
#63 = CARTESIAN_POINT ( 'NONE',  ( 0.0000000000000000000, 0.0000000000000000000, 0.0000000000000000000 ) ) ;
#64 = AXIS2_PLACEMENT_3D ( 'NONE', #237, #347, #633 ) ;
#65 =( NAMED_UNIT ( * ) PLANE_ANGLE_UNIT ( ) SI_UNIT ( $, .RADIAN. ) );
#66 = UNCERTAINTY_MEASURE_WITH_UNIT (LENGTH_MEASURE( 1.000000000000000100E-005 ), #949, 'distance_accuracy_value', 'NONE');
#67 =( NAMED_UNIT ( * ) PLANE_ANGLE_UNIT ( ) SI_UNIT ( $, .RADIAN. ) );
#68 = CARTESIAN_POINT ( 'NONE',  ( 0.2550000000000000000, 0.0000000000000000000, -1.049464148982708600 ) ) ;
#69 = LINE ( 'NONE', #500, #673 ) ;
#70 = DIRECTION ( 'NONE',  ( -0.0000000000000000000, -1.000000000000000000, -0.0000000000000000000 ) ) ;
#71 = VECTOR ( 'NONE', #732, 999.9999999999998900 ) ;
#72 = ORIENTED_EDGE ( 'NONE', *, *, #833, .T. ) ;
#73 = ORIENTED_EDGE ( 'NONE', *, *, #166, .F. ) ;
#74 =( GEOMETRIC_REPRESENTATION_CONTEXT ( 3 ) GLOBAL_UNCERTAINTY_ASSIGNED_CONTEXT ( ( #165 ) ) GLOBAL_UNIT_ASSIGNED_CONTEXT ( ( #231, #339, #1002 ) ) REPRESENTATION_CONTEXT ( 'NONE', 'WORKASPACE' ) );
#75 = LINE ( 'NONE', #1185, #871 ) ;
#76 = SURFACE_STYLE_FILL_AREA ( #1040 ) ;
#77 = PRESENTATION_LAYER_ASSIGNMENT (  '', '', ( #959 ) ) ;
#78 = SURFACE_SIDE_STYLE ('',( #212 ) ) ;
#79 = VECTOR ( 'NONE', #70, 1000.000000000000000 ) ;
#80 =( LENGTH_UNIT ( ) NAMED_UNIT ( * ) SI_UNIT ( .MILLI., .METRE. ) );
#81 = VERTEX_POINT ( 'NONE', #774 ) ;
#82 = DIRECTION ( 'NONE',  ( -0.0000000000000000000, 1.000000000000000000, 0.0000000000000000000 ) ) ;
#83 =( LENGTH_UNIT ( ) NAMED_UNIT ( * ) SI_UNIT ( .MILLI., .METRE. ) );
#84 = AXIS2_PLACEMENT_3D ( 'NONE', #228, #708, #788 ) ;
#85 =( NAMED_UNIT ( * ) SI_UNIT ( $, .STERADIAN. ) SOLID_ANGLE_UNIT ( ) );
#86 = AXIS2_PLACEMENT_3D ( 'NONE', #810, #521, #906 ) ;
#87 = FILL_AREA_STYLE ('',( #179 ) ) ;
#88 = CARTESIAN_POINT ( 'NONE',  ( 0.0000000000000000000, 1.030000000000000000, 0.6460781715392042200 ) ) ;
#89 =( NAMED_UNIT ( * ) PLANE_ANGLE_UNIT ( ) SI_UNIT ( $, .RADIAN. ) );
#90 = CARTESIAN_POINT ( 'NONE',  ( 0.2550000000000000000, 0.2000000000000000100, -0.2550000000000001200 ) ) ;
#91 = DIRECTION ( 'NONE',  ( -0.0000000000000000000, 1.000000000000000000, 0.0000000000000000000 ) ) ;
#92 = VECTOR ( 'NONE', #1025, 1000.000000000000000 ) ;
#93 = ORIENTED_EDGE ( 'NONE', *, *, #317, .F. ) ;
#95 = DIRECTION ( 'NONE',  ( -0.0000000000000000000, -1.000000000000000000, -0.0000000000000000000 ) ) ;
#94 = FILL_AREA_STYLE ('',( #1059 ) ) ;
#96 = PRESENTATION_STYLE_ASSIGNMENT (( #510 ) ) ;
#97 = SURFACE_SIDE_STYLE ('',( #542 ) ) ;
#98 =( GEOMETRIC_REPRESENTATION_CONTEXT ( 3 ) GLOBAL_UNCERTAINTY_ASSIGNED_CONTEXT ( ( #1170 ) ) GLOBAL_UNIT_ASSIGNED_CONTEXT ( ( #355, #462, #1026 ) ) REPRESENTATION_CONTEXT ( 'NONE', 'WORKASPACE' ) );
#99 = EDGE_CURVE ( 'NONE', #460, #995, #466, .T. ) ;
#100 = CARTESIAN_POINT ( 'NONE',  ( -0.2550000000000003400, 0.0000000000000000000, 2.880551362713288800 ) ) ;
#101 = DIRECTION ( 'NONE',  ( -0.0000000000000000000, -0.0000000000000000000, -1.000000000000000000 ) ) ;
#102 = SURFACE_STYLE_USAGE ( .BOTH. , #1 ) ;
#103 = VECTOR ( 'NONE', #10, 1000.000000000000000 ) ;
#104 = DIRECTION ( 'NONE',  ( 0.0000000000000000000, 0.0000000000000000000, 1.000000000000000000 ) ) ;
#105 = FACE_OUTER_BOUND ( 'NONE', #251, .T. ) ;
#106 = SURFACE_SIDE_STYLE ('',( #895 ) ) ;
#107 = PRODUCT_RELATED_PRODUCT_CATEGORY ( 'part', '', ( #295 ) ) ;
#108 = FILL_AREA_STYLE_COLOUR ( '', #287 ) ;
#109 =( NAMED_UNIT ( * ) PLANE_ANGLE_UNIT ( ) SI_UNIT ( $, .RADIAN. ) );
#110 = EDGE_CURVE ( 'NONE', #1011, #11, #523, .T. ) ;
#111 =( GEOMETRIC_REPRESENTATION_CONTEXT ( 3 ) GLOBAL_UNCERTAINTY_ASSIGNED_CONTEXT ( ( #200 ) ) GLOBAL_UNIT_ASSIGNED_CONTEXT ( ( #356, #67, #1019 ) ) REPRESENTATION_CONTEXT ( 'NONE', 'WORKASPACE' ) );
#112 = COLOUR_RGB ( '',0.8509803921568627200, 0.8509803921568627200, 0.8509803921568627200 ) ;
#113 = VERTEX_POINT ( 'NONE', #213 ) ;
#115 = CARTESIAN_POINT ( 'NONE',  ( 3.174999999999999800, 0.2000000000000000100, -0.2550000000000004500 ) ) ;
#114 = DIRECTION ( 'NONE',  ( 0.0000000000000000000, 0.0000000000000000000, 1.000000000000000000 ) ) ;
#116 = PRESENTATION_STYLE_ASSIGNMENT (( #639 ) ) ;
#117 = PRESENTATION_LAYER_ASSIGNMENT (  '', '', ( #337 ) ) ;
#118 = CARTESIAN_POINT ( 'NONE',  ( 0.0000000000000000000, 0.9000000000000002400, 0.9300000000000002700 ) ) ;
#119 = VERTEX_POINT ( 'NONE', #181 ) ;
#120 =( LENGTH_UNIT ( ) NAMED_UNIT ( * ) SI_UNIT ( .MILLI., .METRE. ) );
#121 = LINE ( 'NONE', #194, #1096 ) ;
#122 = VECTOR ( 'NONE', #817, 1000.000000000000000 ) ;
#123 = DIRECTION ( 'NONE',  ( 0.0000000000000000000, -0.0000000000000000000, 1.000000000000000000 ) ) ;
#124 = STYLED_ITEM ( 'NONE', ( #380 ), #693 ) ;
#125 = CLOSED_SHELL ( 'NONE', ( #1195, #1191, #602, #129, #224, #488, #207, #1003, #772, #778, #701, #907, #412, #792, #301, #808, #494, #794, #497, #430, #512, #211, #32, #1010, #693, #44, #812, #716, #131, #232, #312 ) ) ;
#126 =( NAMED_UNIT ( * ) PLANE_ANGLE_UNIT ( ) SI_UNIT ( $, .RADIAN. ) );
#127 = PRODUCT_DEFINITION_SHAPE ( 'NONE', 'NONE',  #1202 ) ;
#128 = DIRECTION ( 'NONE',  ( -0.0000000000000000000, 1.000000000000000000, 0.0000000000000000000 ) ) ;
#129 = ADVANCED_FACE ( 'NONE', ( #1017, #1047 ), #816, .T. ) ;
#130 = LINE ( 'NONE', #885, #331 ) ;
#131 = ADVANCED_FACE ( 'NONE', ( #546 ), #1204, .F. ) ;
#132 = AXIS2_PLACEMENT_3D ( 'NONE', #441, #825, #532 ) ;
#133 = FACE_OUTER_BOUND ( 'NONE', #784, .T. ) ;
#134 = LINE ( 'NONE', #1215, #276 ) ;
#135 = UNCERTAINTY_MEASURE_WITH_UNIT (LENGTH_MEASURE( 1.000000000000000100E-005 ), #827, 'distance_accuracy_value', 'NONE');
#136 = DIRECTION ( 'NONE',  ( -0.0000000000000000000, -0.0000000000000000000, -1.000000000000000000 ) ) ;
#137 = FACE_OUTER_BOUND ( 'NONE', #436, .T. ) ;
#138 = VERTEX_POINT ( 'NONE', #1192 ) ;
#139 = DIRECTION ( 'NONE',  ( -0.0000000000000000000, -0.0000000000000000000, -1.000000000000000000 ) ) ;
#140 = FACE_OUTER_BOUND ( 'NONE', #178, .T. ) ;
#141 = CARTESIAN_POINT ( 'NONE',  ( 0.0000000000000000000, 0.1999999999999999800, 0.0000000000000000000 ) ) ;
#142 = ORIENTED_EDGE ( 'NONE', *, *, #1132, .F. ) ;
#143 = DIRECTION ( 'NONE',  ( 1.000000000000000000, 0.0000000000000000000, -3.713021138648988300E-017 ) ) ;
#144 = CIRCLE ( 'NONE', #773, 1.080000000000000300 ) ;
#145 = EDGE_LOOP ( 'NONE', ( #465, #268, #645, #563 ) ) ;
#146 = FILL_AREA_STYLE ('',( #343 ) ) ;
#147 = LINE ( 'NONE', #917, #375 ) ;
#148 = PLANE ( 'NONE',  #1070 ) ;
#149 =( GEOMETRIC_REPRESENTATION_CONTEXT ( 3 ) GLOBAL_UNCERTAINTY_ASSIGNED_CONTEXT ( ( #983 ) ) GLOBAL_UNIT_ASSIGNED_CONTEXT ( ( #1101, #508, #34 ) ) REPRESENTATION_CONTEXT ( 'NONE', 'WORKASPACE' ) );
#150 = AXIS2_PLACEMENT_3D ( 'NONE', #316, #603, #795 ) ;
#151 = CARTESIAN_POINT ( 'NONE',  ( -0.2550000000000002800, 0.0000000000000000000, -1.049464148982708300 ) ) ;
#152 = DIRECTION ( 'NONE',  ( -0.0000000000000000000, 1.000000000000000000, 0.0000000000000000000 ) ) ;
#153 = FILL_AREA_STYLE_COLOUR ( '', #994 ) ;
#154 = ORIENTED_EDGE ( 'NONE', *, *, #842, .T. ) ;
#155 = CARTESIAN_POINT ( 'NONE',  ( 0.0000000000000000000, -0.3199999999999999500, 0.0000000000000000000 ) ) ;
#156 = VECTOR ( 'NONE', #715, 1000.000000000000000 ) ;
#157 = DIRECTION ( 'NONE',  ( -1.000000000000000000, -0.0000000000000000000, -0.0000000000000000000 ) ) ;
#158 = ORIENTED_EDGE ( 'NONE', *, *, #560, .F. ) ;
#159 = FACE_OUTER_BOUND ( 'NONE', #661, .T. ) ;
#160 = EDGE_CURVE ( 'NONE', #516, #1050, #649, .T. ) ;
#161 =( NAMED_UNIT ( * ) PLANE_ANGLE_UNIT ( ) SI_UNIT ( $, .RADIAN. ) );
#162 = VERTEX_POINT ( 'NONE', #598 ) ;
#163 = EDGE_LOOP ( 'NONE', ( #724, #187, #423, #1211 ) ) ;
#164 = SURFACE_STYLE_USAGE ( .BOTH. , #740 ) ;
#165 = UNCERTAINTY_MEASURE_WITH_UNIT (LENGTH_MEASURE( 1.000000000000000100E-005 ), #231, 'distance_accuracy_value', 'NONE');
#166 = EDGE_CURVE ( 'NONE', #1011, #1020, #1012, .T. ) ;
#167 = ORIENTED_EDGE ( 'NONE', *, *, #284, .T. ) ;
#168 =( GEOMETRIC_REPRESENTATION_CONTEXT ( 3 ) GLOBAL_UNCERTAINTY_ASSIGNED_CONTEXT ( ( #860 ) ) GLOBAL_UNIT_ASSIGNED_CONTEXT ( ( #13, #1261, #1056 ) ) REPRESENTATION_CONTEXT ( 'NONE', 'WORKASPACE' ) );
#169 = CARTESIAN_POINT ( 'NONE',  ( 0.0000000000000000000, 0.1999999999999999800, 0.0000000000000000000 ) ) ;
#170 = VECTOR ( 'NONE', #157, 1000.000000000000000 ) ;
#171 = CARTESIAN_POINT ( 'NONE',  ( 0.2550000000000000000, 0.0000000000000000000, -0.2550000000000001200 ) ) ;
#172 = AXIS2_PLACEMENT_3D ( 'NONE', #968, #576, #473 ) ;
#173 = ORIENTED_EDGE ( 'NONE', *, *, #332, .F. ) ;
#174 = PLANE ( 'NONE',  #776 ) ;
#175 = ORIENTED_EDGE ( 'NONE', *, *, #577, .F. ) ;
#176 = LINE ( 'NONE', #1212, #938 ) ;
#177 = DIRECTION ( 'NONE',  ( -1.000000000000000000, -0.0000000000000000000, 3.713021138648988300E-017 ) ) ;
#178 = EDGE_LOOP ( 'NONE', ( #292, #253 ) ) ;
#179 = FILL_AREA_STYLE_COLOUR ( '', #352 ) ;
#180 = EDGE_CURVE ( 'NONE', #329, #537, #486, .T. ) ;
#181 = CARTESIAN_POINT ( 'NONE',  ( 1.049464148982708600, 0.0000000000000000000, 0.2550000000000000000 ) ) ;
#182 = CARTESIAN_POINT ( 'NONE',  ( 0.0000000000000000000, 1.050000000000000000, 0.8215684478499190000 ) ) ;
#183 = DIRECTION ( 'NONE',  ( 0.0000000000000000000, 0.0000000000000000000, 1.000000000000000000 ) ) ;
#184 = CARTESIAN_POINT ( 'NONE',  ( 0.0000000000000000000, 1.030000000000000000, 0.6460781715392042200 ) ) ;
#185 = MECHANICAL_DESIGN_GEOMETRIC_PRESENTATION_REPRESENTATION (  '', ( #977 ), #26 ) ;
#186 = CARTESIAN_POINT ( 'NONE',  ( 0.2550000000000000000, 0.2000000000000000100, -3.174999999999999800 ) ) ;
#187 = ORIENTED_EDGE ( 'NONE', *, *, #972, .T. ) ;
#188 = SURFACE_STYLE_USAGE ( .BOTH. , #1084 ) ;
#189 = MECHANICAL_DESIGN_GEOMETRIC_PRESENTATION_REPRESENTATION (  '', ( #935 ), #1119 ) ;
#190 = LINE ( 'NONE', #1118, #1203 ) ;
#191 = CARTESIAN_POINT ( 'NONE',  ( -3.175000000000000700, 0.2000000000000000100, 0.2550000000000000000 ) ) ;
#192 = ORIENTED_EDGE ( 'NONE', *, *, #725, .T. ) ;
#193 = DIRECTION ( 'NONE',  ( 0.0000000000000000000, 0.0000000000000000000, 1.000000000000000000 ) ) ;
#194 = CARTESIAN_POINT ( 'NONE',  ( 0.2550000000000000000, 0.2000000000000000100, -3.174999999999999800 ) ) ;
#195 = VECTOR ( 'NONE', #557, 1000.000000000000000 ) ;
#196 = COLOUR_RGB ( '',0.8509803921568627200, 0.8509803921568627200, 0.8509803921568627200 ) ;
#197 = DIRECTION ( 'NONE',  ( 0.0000000000000000000, 0.0000000000000000000, 1.000000000000000000 ) ) ;
#198 =( LENGTH_UNIT ( ) NAMED_UNIT ( * ) SI_UNIT ( .MILLI., .METRE. ) );
#199 = EDGE_CURVE ( 'NONE', #40, #737, #1219, .T. ) ;
#200 = UNCERTAINTY_MEASURE_WITH_UNIT (LENGTH_MEASURE( 1.000000000000000100E-005 ), #356, 'distance_accuracy_value', 'NONE');
#201 = CARTESIAN_POINT ( 'NONE',  ( -3.175000000000000300, 0.2000000000000000100, -0.2550000000000000000 ) ) ;
#202 = PRESENTATION_LAYER_ASSIGNMENT (  '', '', ( #927 ) ) ;
#203 = VECTOR ( 'NONE', #627, 1000.000000000000000 ) ;
#204 = ORIENTED_EDGE ( 'NONE', *, *, #381, .F. ) ;
#205 = PRESENTATION_LAYER_ASSIGNMENT (  '', '', ( #1137 ) ) ;
#206 = ORIENTED_EDGE ( 'NONE', *, *, #668, .T. ) ;
#207 = ADVANCED_FACE ( 'NONE', ( #133 ), #797, .F. ) ;
#208 = CARTESIAN_POINT ( 'NONE',  ( -0.2550000000000000000, 0.0000000000000000000, -3.174999999999999800 ) ) ;
#209 = DIRECTION ( 'NONE',  ( 0.0000000000000000000, 0.0000000000000000000, 1.000000000000000000 ) ) ;
#210 = ORIENTED_EDGE ( 'NONE', *, *, #1034, .T. ) ;
#211 = ADVANCED_FACE ( 'NONE', ( #401 ), #861, .F. ) ;
#212 = SURFACE_STYLE_FILL_AREA ( #646 ) ;
#213 = CARTESIAN_POINT ( 'NONE',  ( 2.149136051654014900E-017, 1.030000000000000000, 0.4705878952284893200 ) ) ;
#214 = CARTESIAN_POINT ( 'NONE',  ( 0.0000000000000000000, 0.1999999999999999800, 0.0000000000000000000 ) ) ;
#215 = TOROIDAL_SURFACE ( 'NONE', #674, 0.9300000000000002700, 0.1499999999999999900 ) ;
#216 = LINE ( 'NONE', #100, #855 ) ;
#217 = DIRECTION ( 'NONE',  ( 0.0000000000000000000, 0.0000000000000000000, 1.000000000000000000 ) ) ;
#218 =( GEOMETRIC_REPRESENTATION_CONTEXT ( 3 ) GLOBAL_UNCERTAINTY_ASSIGNED_CONTEXT ( ( #422 ) ) GLOBAL_UNIT_ASSIGNED_CONTEXT ( ( #958, #474, #565 ) ) REPRESENTATION_CONTEXT ( 'NONE', 'WORKASPACE' ) );
#219 = EDGE_CURVE ( 'NONE', #1124, #138, #799, .T. ) ;
#220 = DIRECTION ( 'NONE',  ( 0.0000000000000000000, 0.0000000000000000000, 1.000000000000000000 ) ) ;
#221 = UNCERTAINTY_MEASURE_WITH_UNIT (LENGTH_MEASURE( 1.000000000000000100E-005 ), #54, 'distance_accuracy_value', 'NONE');
#222 = ORIENTED_EDGE ( 'NONE', *, *, #1260, .F. ) ;
#223 = ORIENTED_EDGE ( 'NONE', *, *, #668, .F. ) ;
#224 = ADVANCED_FACE ( 'NONE', ( #619, #341 ), #846, .T. ) ;
#225 = COLOUR_RGB ( '',0.8509803921568627200, 0.8509803921568627200, 0.8509803921568627200 ) ;
#226 = DIRECTION ( 'NONE',  ( 0.0000000000000000000, 1.000000000000000000, 0.0000000000000000000 ) ) ;
#227 = ORIENTED_EDGE ( 'NONE', *, *, #427, .T. ) ;
#228 = CARTESIAN_POINT ( 'NONE',  ( 0.0000000000000000000, 1.030000000000000000, 0.6460781715392042200 ) ) ;
#229 = ORIENTED_EDGE ( 'NONE', *, *, #657, .F. ) ;
#230 = SURFACE_STYLE_FILL_AREA ( #94 ) ;
#231 =( LENGTH_UNIT ( ) NAMED_UNIT ( * ) SI_UNIT ( .MILLI., .METRE. ) );
#232 = ADVANCED_FACE ( 'NONE', ( #538 ), #1177, .F. ) ;
#233 = EDGE_CURVE ( 'NONE', #801, #81, #285, .T. ) ;
#234 = AXIS2_PLACEMENT_3D ( 'NONE', #184, #575, #275 ) ;
#235 = FILL_AREA_STYLE_COLOUR ( '', #666 ) ;
#236 = DIRECTION ( 'NONE',  ( 0.0000000000000000000, 1.000000000000000000, 0.0000000000000000000 ) ) ;
#237 = CARTESIAN_POINT ( 'NONE',  ( 0.0000000000000000000, 0.9000000000000002400, 0.0000000000000000000 ) ) ;
#238 = LINE ( 'NONE', #858, #203 ) ;
#239 = ORIENTED_EDGE ( 'NONE', *, *, #249, .F. ) ;
#240 = PRESENTATION_STYLE_ASSIGNMENT (( #320 ) ) ;
#241 = ORIENTED_EDGE ( 'NONE', *, *, #936, .T. ) ;
#242 = SURFACE_SIDE_STYLE ('',( #681 ) ) ;
#243 = ORIENTED_EDGE ( 'NONE', *, *, #941, .T. ) ;
#244 = SURFACE_SIDE_STYLE ('',( #823 ) ) ;
#245 = ORIENTED_EDGE ( 'NONE', *, *, #252, .T. ) ;
#246 = DIRECTION ( 'NONE',  ( 0.0000000000000000000, -0.0000000000000000000, 1.000000000000000000 ) ) ;
#247 = STYLED_ITEM ( 'NONE', ( #933 ), #778 ) ;
#248 = DIRECTION ( 'NONE',  ( 0.0000000000000000000, -0.0000000000000000000, 1.000000000000000000 ) ) ;
#249 = EDGE_CURVE ( 'NONE', #1052, #119, #834, .T. ) ;
#250 = LINE ( 'NONE', #171, #478 ) ;
#251 = EDGE_LOOP ( 'NONE', ( #739, #370, #210, #222 ) ) ;
#252 = EDGE_CURVE ( 'NONE', #1206, #1020, #584, .T. ) ;
#253 = ORIENTED_EDGE ( 'NONE', *, *, #266, .T. ) ;
#254 = EDGE_CURVE ( 'NONE', #11, #346, #566, .T. ) ;
#255 = AXIS2_PLACEMENT_3D ( 'NONE', #1237, #354, #1027 ) ;
#256 = ORIENTED_EDGE ( 'NONE', *, *, #451, .F. ) ;
#257 =( NAMED_UNIT ( * ) PLANE_ANGLE_UNIT ( ) SI_UNIT ( $, .RADIAN. ) );
#258 = UNCERTAINTY_MEASURE_WITH_UNIT (LENGTH_MEASURE( 1.000000000000000100E-005 ), #307, 'distance_accuracy_value', 'NONE');
#259 = STYLED_ITEM ( 'NONE', ( #877 ), #716 ) ;
#260 = VERTEX_POINT ( 'NONE', #386 ) ;
#261 = LINE ( 'NONE', #769, #195 ) ;
#262 = CARTESIAN_POINT ( 'NONE',  ( -0.2550000000000003400, 0.2000000000000000100, 2.880551362713288800 ) ) ;
#263 = FILL_AREA_STYLE ('',( #665 ) ) ;
#264 =( NAMED_UNIT ( * ) PLANE_ANGLE_UNIT ( ) SI_UNIT ( $, .RADIAN. ) );
#265 = ORIENTED_EDGE ( 'NONE', *, *, #1029, .F. ) ;
#266 = EDGE_CURVE ( 'NONE', #113, #750, #367, .T. ) ;
#267 = ORIENTED_EDGE ( 'NONE', *, *, #688, .T. ) ;
#268 = ORIENTED_EDGE ( 'NONE', *, *, #454, .T. ) ;
#269 = DIRECTION ( 'NONE',  ( -1.000000000000000000, 0.0000000000000000000, -0.0000000000000000000 ) ) ;
#270 = VECTOR ( 'NONE', #236, 1000.000000000000000 ) ;
#271 = DIRECTION ( 'NONE',  ( 0.0000000000000000000, 1.000000000000000000, 0.0000000000000000000 ) ) ;
#272 = ORIENTED_EDGE ( 'NONE', *, *, #233, .T. ) ;
#273 = SURFACE_STYLE_USAGE ( .BOTH. , #1168 ) ;
#274 = SURFACE_STYLE_USAGE ( .BOTH. , #545 ) ;
#275 = DIRECTION ( 'NONE',  ( 0.0000000000000000000, 0.0000000000000000000, 1.000000000000000000 ) ) ;
#276 = VECTOR ( 'NONE', #334, 1000.000000000000000 ) ;
#277 = CARTESIAN_POINT ( 'NONE',  ( 0.0000000000000000000, 0.0000000000000000000, 0.0000000000000000000 ) ) ;
#278 = SURFACE_STYLE_USAGE ( .BOTH. , #20 ) ;
#279 = DIRECTION ( 'NONE',  ( -0.0000000000000000000, -1.000000000000000000, -0.0000000000000000000 ) ) ;
#280 = LINE ( 'NONE', #923, #463 ) ;
#281 = VERTEX_POINT ( 'NONE', #501 ) ;
#282 = DIRECTION ( 'NONE',  ( 0.0000000000000000000, 1.000000000000000000, 0.0000000000000000000 ) ) ;
#283 = STYLED_ITEM ( 'NONE', ( #643 ), #792 ) ;
#284 = EDGE_CURVE ( 'NONE', #782, #838, #678, .T. ) ;
#285 = LINE ( 'NONE', #1164, #3 ) ;
#286 = EDGE_LOOP ( 'NONE', ( #1107, #765, #697, #807, #971 ) ) ;
#287 = COLOUR_RGB ( '',0.8509803921568627200, 0.8509803921568627200, 0.8509803921568627200 ) ;
#288 = CARTESIAN_POINT ( 'NONE',  ( -1.049464148982708600, 0.0000000000000000000, -0.2550000000000000600 ) ) ;
#289 = DIRECTION ( 'NONE',  ( 0.0000000000000000000, -0.0000000000000000000, 1.000000000000000000 ) ) ;
#290 =( NAMED_UNIT ( * ) PLANE_ANGLE_UNIT ( ) SI_UNIT ( $, .RADIAN. ) );
#291 = DIRECTION ( 'NONE',  ( 1.000000000000000000, 0.0000000000000000000, 0.0000000000000000000 ) ) ;
#292 = ORIENTED_EDGE ( 'NONE', *, *, #657, .T. ) ;
#293 = VERTEX_POINT ( 'NONE', #22 ) ;
#294 = DIRECTION ( 'NONE',  ( -0.0000000000000000000, 1.000000000000000000, 0.0000000000000000000 ) ) ;
#295 = PRODUCT ( 'ERA-3+', 'ERA-3+', '', ( #872 ) ) ;
#296 = DIRECTION ( 'NONE',  ( -0.0000000000000000000, -0.0000000000000000000, -1.000000000000000000 ) ) ;
#297 = CARTESIAN_POINT ( 'NONE',  ( 0.2550000000000000000, 0.0000000000000000000, 1.049464148982708600 ) ) ;
#298 = AXIS2_PLACEMENT_3D ( 'NONE', #867, #1062, #475 ) ;
#299 = SURFACE_STYLE_USAGE ( .BOTH. , #876 ) ;
#300 = AXIS2_PLACEMENT_3D ( 'NONE', #201, #601, #424 ) ;
#301 = ADVANCED_FACE ( 'NONE', ( #325 ), #304, .F. ) ;
#302 = VECTOR ( 'NONE', #1078, 1000.000000000000000 ) ;
#303 = PLANE ( 'NONE',  #1222 ) ;
#304 = PLANE ( 'NONE',  #300 ) ;
#305 = VECTOR ( 'NONE', #95, 1000.000000000000000 ) ;
#306 = ORIENTED_EDGE ( 'NONE', *, *, #903, .F. ) ;
#307 =( LENGTH_UNIT ( ) NAMED_UNIT ( * ) SI_UNIT ( .MILLI., .METRE. ) );
#308 = ORIENTED_EDGE ( 'NONE', *, *, #837, .T. ) ;
#309 = CARTESIAN_POINT ( 'NONE',  ( 0.0000000000000000000, 0.0000000000000000000, -1.080000000000000300 ) ) ;
#310 = EDGE_LOOP ( 'NONE', ( #937, #840 ) ) ;
#311 =( NAMED_UNIT ( * ) SI_UNIT ( $, .STERADIAN. ) SOLID_ANGLE_UNIT ( ) );
#312 = ADVANCED_FACE ( 'NONE', ( #140 ), #496, .T. ) ;
#313 = LINE ( 'NONE', #470, #932 ) ;
#314 = CARTESIAN_POINT ( 'NONE',  ( -0.2550000000000000000, 0.2000000000000000100, -3.174999999999999800 ) ) ;
#315 = CARTESIAN_POINT ( 'NONE',  ( 0.2550000000000000000, 0.2000000000000000100, 3.174999999999999800 ) ) ;
#316 = CARTESIAN_POINT ( 'NONE',  ( 0.0000000000000000000, -0.4699999999999999700, 0.0000000000000000000 ) ) ;
#317 = EDGE_CURVE ( 'NONE', #260, #818, #1201, .T. ) ;
#318 = LINE ( 'NONE', #806, #658 ) ;
#319 =( GEOMETRIC_REPRESENTATION_CONTEXT ( 3 ) GLOBAL_UNCERTAINTY_ASSIGNED_CONTEXT ( ( #400 ) ) GLOBAL_UNIT_ASSIGNED_CONTEXT ( ( #391, #109, #984 ) ) REPRESENTATION_CONTEXT ( 'NONE', 'WORKASPACE' ) );
#320 = SURFACE_STYLE_USAGE ( .BOTH. , #503 ) ;
#321 = CIRCLE ( 'NONE', #1128, 0.1754902763107148200 ) ;
#322 = ORIENTED_EDGE ( 'NONE', *, *, #345, .F. ) ;
#323 = DIRECTION ( 'NONE',  ( -1.000000000000000000, 0.0000000000000000000, 0.0000000000000000000 ) ) ;
#324 = UNCERTAINTY_MEASURE_WITH_UNIT (LENGTH_MEASURE( 1.000000000000000100E-005 ), #1023, 'distance_accuracy_value', 'NONE');
#325 = FACE_OUTER_BOUND ( 'NONE', #1251, .T. ) ;
#326 = ORIENTED_EDGE ( 'NONE', *, *, #1205, .F. ) ;
#327 = PRESENTATION_STYLE_ASSIGNMENT (( #102 ) ) ;
#328 = FILL_AREA_STYLE_COLOUR ( '', #637 ) ;
#329 = VERTEX_POINT ( 'NONE', #992 ) ;
#330 = CARTESIAN_POINT ( 'NONE',  ( -1.049464148982708600, 1.050000000000000000, 0.2550000000000000000 ) ) ;
#331 = VECTOR ( 'NONE', #16, 1000.000000000000000 ) ;
#332 = EDGE_CURVE ( 'NONE', #1036, #81, #1134, .T. ) ;
#333 = ORIENTED_EDGE ( 'NONE', *, *, #941, .F. ) ;
#334 = DIRECTION ( 'NONE',  ( 0.0000000000000000000, 0.0000000000000000000, 1.000000000000000000 ) ) ;
#335 = FACE_OUTER_BOUND ( 'NONE', #762, .T. ) ;
#336 = CARTESIAN_POINT ( 'NONE',  ( 0.0000000000000000000, 1.050000000000000000, 0.0000000000000000000 ) ) ;
#337 = STYLED_ITEM ( 'NONE', ( #852 ), #812 ) ;
#338 = LINE ( 'NONE', #522, #71 ) ;
#339 =( NAMED_UNIT ( * ) PLANE_ANGLE_UNIT ( ) SI_UNIT ( $, .RADIAN. ) );
#340 = DIRECTION ( 'NONE',  ( 0.0000000000000000000, 0.0000000000000000000, 1.000000000000000000 ) ) ;
#341 = FACE_BOUND ( 'NONE', #591, .T. ) ;
#342 = ORIENTED_EDGE ( 'NONE', *, *, #110, .F. ) ;
#343 = FILL_AREA_STYLE_COLOUR ( '', #1140 ) ;
#344 = DIRECTION ( 'NONE',  ( 0.0000000000000000000, 0.0000000000000000000, 1.000000000000000000 ) ) ;
#345 = EDGE_CURVE ( 'NONE', #952, #782, #432, .T. ) ;
#346 = VERTEX_POINT ( 'NONE', #506 ) ;
#347 = DIRECTION ( 'NONE',  ( -0.0000000000000000000, -1.000000000000000000, -0.0000000000000000000 ) ) ;
#348 = ORIENTED_EDGE ( 'NONE', *, *, #659, .F. ) ;
#349 = FILL_AREA_STYLE ('',( #553 ) ) ;
#350 = CIRCLE ( 'NONE', #699, 1.080000000000000300 ) ;
#351 = DIRECTION ( 'NONE',  ( -0.0000000000000000000, -1.000000000000000000, -0.0000000000000000000 ) ) ;
#352 = COLOUR_RGB ( '',0.8509803921568627200, 0.8509803921568627200, 0.8509803921568627200 ) ;
#353 = MECHANICAL_DESIGN_GEOMETRIC_PRESENTATION_REPRESENTATION (  '', ( #948 ), #74 ) ;
#354 = DIRECTION ( 'NONE',  ( -0.0000000000000000000, 1.000000000000000000, 0.0000000000000000000 ) ) ;
#355 =( LENGTH_UNIT ( ) NAMED_UNIT ( * ) SI_UNIT ( .MILLI., .METRE. ) );
#356 =( LENGTH_UNIT ( ) NAMED_UNIT ( * ) SI_UNIT ( .MILLI., .METRE. ) );
#357 = ORIENTED_EDGE ( 'NONE', *, *, #1061, .F. ) ;
#358 = SURFACE_STYLE_FILL_AREA ( #703 ) ;
#359 = VERTEX_POINT ( 'NONE', #315 ) ;
#360 =( GEOMETRIC_REPRESENTATION_CONTEXT ( 3 ) GLOBAL_UNCERTAINTY_ASSIGNED_CONTEXT ( ( #743 ) ) GLOBAL_UNIT_ASSIGNED_CONTEXT ( ( #374, #264, #1226 ) ) REPRESENTATION_CONTEXT ( 'NONE', 'WORKASPACE' ) );
#361 = MECHANICAL_DESIGN_GEOMETRIC_PRESENTATION_REPRESENTATION (  '', ( #559 ), #378 ) ;
#362 = SURFACE_STYLE_FILL_AREA ( #495 ) ;
#363 = UNCERTAINTY_MEASURE_WITH_UNIT (LENGTH_MEASURE( 1.000000000000000100E-005 ), #83, 'distance_accuracy_value', 'NONE');
#364 = DIRECTION ( 'NONE',  ( 1.000000000000000000, 0.0000000000000000000, 0.0000000000000000000 ) ) ;
#365 = AXIS2_PLACEMENT_3D ( 'NONE', #592, #21, #114 ) ;
#366 = CARTESIAN_POINT ( 'NONE',  ( -3.175000000000000700, 0.2000000000000000100, 0.2550000000000000000 ) ) ;
#367 = CIRCLE ( 'NONE', #578, 0.1754902763107148200 ) ;
#368 = ORIENTED_EDGE ( 'NONE', *, *, #547, .T. ) ;
#369 = EDGE_CURVE ( 'NONE', #768, #293, #664, .T. ) ;
#370 = ORIENTED_EDGE ( 'NONE', *, *, #1114, .T. ) ;
#371 = MECHANICAL_DESIGN_GEOMETRIC_PRESENTATION_REPRESENTATION (  '', ( #469 ), #600 ) ;
#372 = ORIENTED_EDGE ( 'NONE', *, *, #859, .F. ) ;
#373 =( NAMED_UNIT ( * ) PLANE_ANGLE_UNIT ( ) SI_UNIT ( $, .RADIAN. ) );
#374 =( LENGTH_UNIT ( ) NAMED_UNIT ( * ) SI_UNIT ( .MILLI., .METRE. ) );
#375 = VECTOR ( 'NONE', #448, 1000.000000000000000 ) ;
#376 = PLANE ( 'NONE',  #1008 ) ;
#377 = CARTESIAN_POINT ( 'NONE',  ( -3.175000000000000700, 0.2000000000000000100, 0.2550000000000000000 ) ) ;
#378 =( GEOMETRIC_REPRESENTATION_CONTEXT ( 3 ) GLOBAL_UNCERTAINTY_ASSIGNED_CONTEXT ( ( #654 ) ) GLOBAL_UNIT_ASSIGNED_CONTEXT ( ( #766, #290, #1257 ) ) REPRESENTATION_CONTEXT ( 'NONE', 'WORKASPACE' ) );
#379 = MECHANICAL_DESIGN_GEOMETRIC_PRESENTATION_REPRESENTATION (  '', ( #1139 ), #449 ) ;
#380 = PRESENTATION_STYLE_ASSIGNMENT (( #1231 ) ) ;
#381 = EDGE_CURVE ( 'NONE', #995, #728, #880, .T. ) ;
#382 = CARTESIAN_POINT ( 'NONE',  ( 1.322618543079141700E-016, -0.3199999999999999500, 1.080000000000000300 ) ) ;
#383 = CARTESIAN_POINT ( 'NONE',  ( 1.322618543079141700E-016, 0.0000000000000000000, 1.080000000000000300 ) ) ;
#384 = CARTESIAN_POINT ( 'NONE',  ( 0.0000000000000000000, -0.3199999999999999500, 0.0000000000000000000 ) ) ;
#386 = CARTESIAN_POINT ( 'NONE',  ( 3.174999999999999800, 0.2000000000000000100, 0.2550000000000000000 ) ) ;
#385 = CARTESIAN_POINT ( 'NONE',  ( 0.0000000000000000000, 0.1999999999999999800, 0.0000000000000000000 ) ) ;
#387 = DIRECTION ( 'NONE',  ( 0.0000000000000000000, 0.0000000000000000000, 1.000000000000000000 ) ) ;
#388 = PRESENTATION_STYLE_ASSIGNMENT (( #278 ) ) ;
#389 = VECTOR ( 'NONE', #579, 1000.000000000000000 ) ;
#390 = FILL_AREA_STYLE_COLOUR ( '', #196 ) ;
#391 =( LENGTH_UNIT ( ) NAMED_UNIT ( * ) SI_UNIT ( .MILLI., .METRE. ) );
#392 = STYLED_ITEM ( 'NONE', ( #596 ), #211 ) ;
#393 =( NAMED_UNIT ( * ) PLANE_ANGLE_UNIT ( ) SI_UNIT ( $, .RADIAN. ) );
#395 = CARTESIAN_POINT ( 'NONE',  ( 0.0000000000000000000, 0.0000000000000000000, 0.0000000000000000000 ) ) ;
#394 = CARTESIAN_POINT ( 'NONE',  ( 0.2550000000000000000, 0.2000000000000000100, 0.2550000000000000000 ) ) ;
#396 = ORIENTED_EDGE ( 'NONE', *, *, #1113, .F. ) ;
#397 = DIRECTION ( 'NONE',  ( 1.113906341594696500E-016, -0.0000000000000000000, 1.000000000000000000 ) ) ;
#398 = MECHANICAL_DESIGN_GEOMETRIC_PRESENTATION_REPRESENTATION (  '', ( #337 ), #985 ) ;
#399 = ORIENTED_EDGE ( 'NONE', *, *, #233, .F. ) ;
#400 = UNCERTAINTY_MEASURE_WITH_UNIT (LENGTH_MEASURE( 1.000000000000000100E-005 ), #391, 'distance_accuracy_value', 'NONE');
#401 = FACE_OUTER_BOUND ( 'NONE', #1088, .T. ) ;
#402 = CARTESIAN_POINT ( 'NONE',  ( 1.322618543079141700E-016, 0.1999999999999999800, 1.080000000000000300 ) ) ;
#403 = VERTEX_POINT ( 'NONE', #614 ) ;
#405 = FILL_AREA_STYLE_COLOUR ( '', #112 ) ;
#404 = CARTESIAN_POINT ( 'NONE',  ( -0.2550000000000003400, 0.0000000000000000000, 1.049464148982708600 ) ) ;
#406 = ORIENTED_EDGE ( 'NONE', *, *, #659, .T. ) ;
#407 = DIRECTION ( 'NONE',  ( 0.0000000000000000000, 1.000000000000000000, 0.0000000000000000000 ) ) ;
#409 = DIRECTION ( 'NONE',  ( -0.0000000000000000000, -0.0000000000000000000, -1.000000000000000000 ) ) ;
#408 = CARTESIAN_POINT ( 'NONE',  ( 0.2550000000000000000, 0.2000000000000000100, 0.2550000000000000000 ) ) ;
#410 = VECTOR ( 'NONE', #101, 1000.000000000000000 ) ;
#411 = CARTESIAN_POINT ( 'NONE',  ( 0.2550000000000000000, 0.0000000000000000000, 3.174999999999999800 ) ) ;
#412 = ADVANCED_FACE ( 'NONE', ( #1155 ), #1190, .F. ) ;
#413 = CARTESIAN_POINT ( 'NONE',  ( 3.174999999999999800, 0.0000000000000000000, -0.2550000000000004500 ) ) ;
#414 = VECTOR ( 'NONE', #696, 1000.000000000000000 ) ;
#415 = CARTESIAN_POINT ( 'NONE',  ( 0.0000000000000000000, 0.0000000000000000000, 0.0000000000000000000 ) ) ;
#416 = PRODUCT_DEFINITION_CONTEXT ( 'detailed design', #969, 'design' ) ;
#417 = MECHANICAL_DESIGN_GEOMETRIC_PRESENTATION_REPRESENTATION (  '', ( #515 ), #713 ) ;
#418 = COLOUR_RGB ( '',0.8509803921568627200, 0.8509803921568627200, 0.8509803921568627200 ) ;
#419 = ORIENTED_EDGE ( 'NONE', *, *, #547, .F. ) ;
#420 = DIRECTION ( 'NONE',  ( -0.0000000000000000000, -1.000000000000000000, -0.0000000000000000000 ) ) ;
#421 = ORIENTED_EDGE ( 'NONE', *, *, #1260, .T. ) ;
#422 = UNCERTAINTY_MEASURE_WITH_UNIT (LENGTH_MEASURE( 1.000000000000000100E-005 ), #958, 'distance_accuracy_value', 'NONE');
#423 = ORIENTED_EDGE ( 'NONE', *, *, #819, .T. ) ;
#424 = DIRECTION ( 'NONE',  ( 8.503546450866701300E-016, 0.0000000000000000000, -1.000000000000000000 ) ) ;
#425 =( NAMED_UNIT ( * ) SI_UNIT ( $, .STERADIAN. ) SOLID_ANGLE_UNIT ( ) );
#426 =( GEOMETRIC_REPRESENTATION_CONTEXT ( 3 ) GLOBAL_UNCERTAINTY_ASSIGNED_CONTEXT ( ( #66 ) ) GLOBAL_UNIT_ASSIGNED_CONTEXT ( ( #949, #161, #1248 ) ) REPRESENTATION_CONTEXT ( 'NONE', 'WORKASPACE' ) );
#427 = EDGE_CURVE ( 'NONE', #460, #1178, #144, .T. ) ;
#428 = LINE ( 'NONE', #599, #414 ) ;
#429 = DIRECTION ( 'NONE',  ( -1.000000000000000000, 0.0000000000000000000, 0.0000000000000000000 ) ) ;
#430 = ADVANCED_FACE ( 'NONE', ( #1051 ), #45, .F. ) ;
#431 = ORIENTED_EDGE ( 'NONE', *, *, #595, .T. ) ;
#432 = CIRCLE ( 'NONE', #1004, 1.080000000000000300 ) ;
#433 = VERTEX_POINT ( 'NONE', #706 ) ;
#434 = DIRECTION ( 'NONE',  ( 1.000000000000000000, -0.0000000000000000000, 1.224646799147353200E-016 ) ) ;
#435 = COLOUR_RGB ( '',0.8509803921568627200, 0.8509803921568627200, 0.8509803921568627200 ) ;
#436 = EDGE_LOOP ( 'NONE', ( #849, #1142, #348, #142 ) ) ;
#437 = ORIENTED_EDGE ( 'NONE', *, *, #746, .F. ) ;
#438 = AXIS2_PLACEMENT_3D ( 'NONE', #489, #1166, #676 ) ;
#439 =( LENGTH_UNIT ( ) NAMED_UNIT ( * ) SI_UNIT ( .MILLI., .METRE. ) );
#440 = MECHANICAL_DESIGN_GEOMETRIC_PRESENTATION_REPRESENTATION (  '', ( #392 ), #168 ) ;
#441 = CARTESIAN_POINT ( 'NONE',  ( 0.0000000000000000000, -0.3199999999999999500, 0.0000000000000000000 ) ) ;
#442 = DIRECTION ( 'NONE',  ( -0.0000000000000000000, 1.000000000000000000, 0.0000000000000000000 ) ) ;
#443 = DIRECTION ( 'NONE',  ( 0.0000000000000000000, 0.0000000000000000000, -1.000000000000000000 ) ) ;
#444 = CARTESIAN_POINT ( 'NONE',  ( 3.174999999999999800, 0.2000000000000000100, 0.2550000000000000000 ) ) ;
#445 = LINE ( 'NONE', #377, #723 ) ;
#446 = DIRECTION ( 'NONE',  ( 0.0000000000000000000, 1.000000000000000000, 0.0000000000000000000 ) ) ;
#447 = ORIENTED_EDGE ( 'NONE', *, *, #199, .F. ) ;
#448 = DIRECTION ( 'NONE',  ( -0.0000000000000000000, -1.000000000000000000, -0.0000000000000000000 ) ) ;
#449 =( GEOMETRIC_REPRESENTATION_CONTEXT ( 3 ) GLOBAL_UNCERTAINTY_ASSIGNED_CONTEXT ( ( #711 ) ) GLOBAL_UNIT_ASSIGNED_CONTEXT ( ( #80, #857, #1154 ) ) REPRESENTATION_CONTEXT ( 'NONE', 'WORKASPACE' ) );
#450 = EDGE_CURVE ( 'NONE', #162, #838, #786, .T. ) ;
#451 = EDGE_CURVE ( 'NONE', #11, #1217, #552, .T. ) ;
#452 = ORIENTED_EDGE ( 'NONE', *, *, #1235, .F. ) ;
#453 = SURFACE_STYLE_USAGE ( .BOTH. , #244 ) ;
#454 = EDGE_CURVE ( 'NONE', #537, #138, #190, .T. ) ;
#455 = AXIS2_PLACEMENT_3D ( 'NONE', #1077, #1175, #963 ) ;
#456 = ORIENTED_EDGE ( 'NONE', *, *, #166, .T. ) ;
#457 = CARTESIAN_POINT ( 'NONE',  ( -3.175000000000000700, 0.0000000000000000000, 0.2550000000000000000 ) ) ;
#458 = SURFACE_STYLE_FILL_AREA ( #1007 ) ;
#459 = AXIS2_PLACEMENT_3D ( 'NONE', #630, #443, #1049 ) ;
#460 = VERTEX_POINT ( 'NONE', #514 ) ;
#461 = LINE ( 'NONE', #962, #1259 ) ;
#462 =( NAMED_UNIT ( * ) PLANE_ANGLE_UNIT ( ) SI_UNIT ( $, .RADIAN. ) );
#463 = VECTOR ( 'NONE', #446, 1000.000000000000000 ) ;
#464 = EDGE_CURVE ( 'NONE', #1254, #910, #176, .T. ) ;
#465 = ORIENTED_EDGE ( 'NONE', *, *, #180, .T. ) ;
#466 = LINE ( 'NONE', #1263, #302 ) ;
#467 = PLANE ( 'NONE',  #52 ) ;
#468 = EDGE_LOOP ( 'NONE', ( #835, #824, #511, #241 ) ) ;
#469 = STYLED_ITEM ( 'NONE', ( #116 ), #497 ) ;
#470 = CARTESIAN_POINT ( 'NONE',  ( 0.2550000000000000000, 0.2000000000000000100, -0.2550000000000001200 ) ) ;
#471 = ORIENTED_EDGE ( 'NONE', *, *, #1234, .T. ) ;
#472 = SURFACE_STYLE_USAGE ( .BOTH. , #655 ) ;
#473 = DIRECTION ( 'NONE',  ( 1.113906341594696500E-016, 0.0000000000000000000, -1.000000000000000000 ) ) ;
#474 =( NAMED_UNIT ( * ) PLANE_ANGLE_UNIT ( ) SI_UNIT ( $, .RADIAN. ) );
#475 = DIRECTION ( 'NONE',  ( 0.0000000000000000000, 0.0000000000000000000, 1.000000000000000000 ) ) ;
#476 =( NAMED_UNIT ( * ) PLANE_ANGLE_UNIT ( ) SI_UNIT ( $, .RADIAN. ) );
#477 = PRESENTATION_LAYER_ASSIGNMENT (  '', '', ( #1139 ) ) ;
#478 = VECTOR ( 'NONE', #853, 1000.000000000000000 ) ;
#479 = EDGE_CURVE ( 'NONE', #81, #1178, #1022, .T. ) ;
#480 = SURFACE_STYLE_USAGE ( .BOTH. , #1163 ) ;
#481 = VECTOR ( 'NONE', #420, 1000.000000000000000 ) ;
#482 = ORIENTED_EDGE ( 'NONE', *, *, #451, .T. ) ;
#483 = CARTESIAN_POINT ( 'NONE',  ( 0.2550000000000000000, 0.1999999999999999800, -1.049464148982708600 ) ) ;
#484 = UNCERTAINTY_MEASURE_WITH_UNIT (LENGTH_MEASURE( 1.000000000000000100E-005 ), #198, 'distance_accuracy_value', 'NONE');
#485 = DIRECTION ( 'NONE',  ( -0.0000000000000000000, 1.000000000000000000, 0.0000000000000000000 ) ) ;
#486 = LINE ( 'NONE', #208, #981 ) ;
#487 = LINE ( 'NONE', #672, #1188 ) ;
#488 = ADVANCED_FACE ( 'NONE', ( #27, #513 ), #712, .T. ) ;
#489 = CARTESIAN_POINT ( 'NONE',  ( 0.0000000000000000000, 0.0000000000000000000, 0.0000000000000000000 ) ) ;
#490 = AXIS2_PLACEMENT_3D ( 'NONE', #1199, #1091, #900 ) ;
#491 = CARTESIAN_POINT ( 'NONE',  ( 3.174999999999999800, 0.2000000000000000100, -0.2550000000000004500 ) ) ;
#492 = EDGE_CURVE ( 'NONE', #260, #990, #973, .T. ) ;
#493 = PRESENTATION_LAYER_ASSIGNMENT (  '', '', ( #515 ) ) ;
#494 = ADVANCED_FACE ( 'NONE', ( #1009 ), #922, .F. ) ;
#495 = FILL_AREA_STYLE ('',( #671 ) ) ;
#496 = PLANE ( 'NONE',  #548 ) ;
#497 = ADVANCED_FACE ( 'NONE', ( #1123 ), #919, .F. ) ;
#498 = EDGE_LOOP ( 'NONE', ( #588, #1214, #158, #850 ) ) ;
#499 = EDGE_LOOP ( 'NONE', ( #976, #1141, #928, #1048 ) ) ;
#500 = CARTESIAN_POINT ( 'NONE',  ( 2.149136051654014900E-017, 1.030000000000000000, 0.4705878952284893200 ) ) ;
#501 = CARTESIAN_POINT ( 'NONE',  ( 3.174999999999999800, 0.0000000000000000000, -0.2550000000000004500 ) ) ;
#502 = PRESENTATION_STYLE_ASSIGNMENT (( #59 ) ) ;
#503 = SURFACE_SIDE_STYLE ('',( #748 ) ) ;
#504 = STYLED_ITEM ( 'NONE', ( #1246 ), #44 ) ;
#505 = DIRECTION ( 'NONE',  ( -0.0000000000000000000, -0.0000000000000000000, -1.000000000000000000 ) ) ;
#506 = CARTESIAN_POINT ( 'NONE',  ( 0.0000000000000000000, 0.1999999999999999800, -1.080000000000000300 ) ) ;
#507 = COLOUR_RGB ( '',0.8509803921568627200, 0.8509803921568627200, 0.8509803921568627200 ) ;
#508 =( NAMED_UNIT ( * ) PLANE_ANGLE_UNIT ( ) SI_UNIT ( $, .RADIAN. ) );
#509 = DIRECTION ( 'NONE',  ( -0.0000000000000000000, 1.000000000000000000, 0.0000000000000000000 ) ) ;
#510 = SURFACE_STYLE_USAGE ( .BOTH. , #518 ) ;
#511 = ORIENTED_EDGE ( 'NONE', *, *, #317, .T. ) ;
#512 = ADVANCED_FACE ( 'NONE', ( #911 ), #629, .T. ) ;
#513 = FACE_OUTER_BOUND ( 'NONE', #896, .T. ) ;
#514 = CARTESIAN_POINT ( 'NONE',  ( -1.049464148982708600, 0.1999999999999999800, -0.2550000000000000600 ) ) ;
#515 = STYLED_ITEM ( 'NONE', ( #764 ), #312 ) ;
#516 = VERTEX_POINT ( 'NONE', #62 ) ;
#517 = FACE_OUTER_BOUND ( 'NONE', #468, .T. ) ;
#518 = SURFACE_SIDE_STYLE ('',( #358 ) ) ;
#519 = PRESENTATION_LAYER_ASSIGNMENT (  '', '', ( #259 ) ) ;
#520 = UNCERTAINTY_MEASURE_WITH_UNIT (LENGTH_MEASURE( 1.000000000000000100E-005 ), #120, 'distance_accuracy_value', 'NONE');
#521 = DIRECTION ( 'NONE',  ( 0.0000000000000000000, 1.000000000000000000, 0.0000000000000000000 ) ) ;
#522 = CARTESIAN_POINT ( 'NONE',  ( -0.2550000000000003400, 0.2000000000000000100, 2.880551362713288800 ) ) ;
#523 = CIRCLE ( 'NONE', #610, 1.080000000000000300 ) ;
#524 = SURFACE_STYLE_USAGE ( .BOTH. , #534 ) ;
#525 = ORIENTED_EDGE ( 'NONE', *, *, #50, .F. ) ;
#526 = DIRECTION ( 'NONE',  ( 0.0000000000000000000, 0.0000000000000000000, 1.000000000000000000 ) ) ;
#527 = VERTEX_POINT ( 'NONE', #1133 ) ;
#528 = FILL_AREA_STYLE ('',( #1126 ) ) ;
#529 = ORIENTED_EDGE ( 'NONE', *, *, #833, .F. ) ;
#530 = FILL_AREA_STYLE ('',( #1127 ) ) ;
#531 = DIRECTION ( 'NONE',  ( 0.0000000000000000000, 1.000000000000000000, 0.0000000000000000000 ) ) ;
#532 = DIRECTION ( 'NONE',  ( 0.0000000000000000000, 0.0000000000000000000, 1.000000000000000000 ) ) ;
#533 = PRESENTATION_STYLE_ASSIGNMENT (( #480 ) ) ;
#534 = SURFACE_SIDE_STYLE ('',( #862 ) ) ;
#535 = CIRCLE ( 'NONE', #490, 0.1499999999999999700 ) ;
#536 = AXIS2_PLACEMENT_3D ( 'NONE', #632, #828, #929 ) ;
#537 = VERTEX_POINT ( 'NONE', #151 ) ;
#538 = FACE_OUTER_BOUND ( 'NONE', #53, .T. ) ;
#539 = ORIENTED_EDGE ( 'NONE', *, *, #767, .F. ) ;
#540 = MECHANICAL_DESIGN_GEOMETRIC_PRESENTATION_REPRESENTATION (  '', ( #259 ), #98 ) ;
#541 = ORIENTED_EDGE ( 'NONE', *, *, #464, .T. ) ;
#542 = SURFACE_STYLE_FILL_AREA ( #1060 ) ;
#543 = DIRECTION ( 'NONE',  ( -0.0000000000000000000, 1.000000000000000000, 0.0000000000000000000 ) ) ;
#544 = PRODUCT_DEFINITION_FORMATION_WITH_SPECIFIED_SOURCE ( 'ANY', '', #295, .NOT_KNOWN. ) ;
#545 = SURFACE_SIDE_STYLE ('',( #76 ) ) ;
#546 = FACE_OUTER_BOUND ( 'NONE', #730, .T. ) ;
#547 = EDGE_CURVE ( 'NONE', #359, #1254, #814, .T. ) ;
#548 = AXIS2_PLACEMENT_3D ( 'NONE', #1196, #597, #123 ) ;
#549 = ORIENTED_EDGE ( 'NONE', *, *, #899, .F. ) ;
#550 = ORIENTED_EDGE ( 'NONE', *, *, #613, .F. ) ;
#551 = DIRECTION ( 'NONE',  ( 0.5000000000000020000, 0.0000000000000000000, -0.8660254037844376000 ) ) ;
#552 = CIRCLE ( 'NONE', #670, 0.1499999999999999700 ) ;
#553 = FILL_AREA_STYLE_COLOUR ( '', #967 ) ;
#554 = ORIENTED_EDGE ( 'NONE', *, *, #725, .F. ) ;
#555 = DIRECTION ( 'NONE',  ( 1.000000000000000000, 0.0000000000000000000, 0.0000000000000000000 ) ) ;
#556 = PRESENTATION_STYLE_ASSIGNMENT (( #472 ) ) ;
#557 = DIRECTION ( 'NONE',  ( -0.0000000000000000000, -1.000000000000000000, -0.0000000000000000000 ) ) ;
#558 = AXIS2_PLACEMENT_3D ( 'NONE', #1152, #294, #104 ) ;
#559 = STYLED_ITEM ( 'NONE', ( #327 ), #32 ) ;
#560 = EDGE_CURVE ( 'NONE', #838, #162, #1116, .T. ) ;
#561 = PLANE ( 'NONE',  #886 ) ;
#562 = COLOUR_RGB ( '',0.1137254901960784300, 0.1137254901960784300, 0.1137254901960784300 ) ;
#563 = ORIENTED_EDGE ( 'NONE', *, *, #865, .T. ) ;
#564 =( NAMED_UNIT ( * ) SI_UNIT ( $, .STERADIAN. ) SOLID_ANGLE_UNIT ( ) );
#565 =( NAMED_UNIT ( * ) SI_UNIT ( $, .STERADIAN. ) SOLID_ANGLE_UNIT ( ) );
#566 = LINE ( 'NONE', #957, #305 ) ;
#567 = EDGE_LOOP ( 'NONE', ( #662, #1227, #1156, #638 ) ) ;
#568 = SURFACE_STYLE_FILL_AREA ( #1153 ) ;
#570 = DIRECTION ( 'NONE',  ( -0.0000000000000000000, -1.000000000000000000, -0.0000000000000000000 ) ) ;
#569 = DIRECTION ( 'NONE',  ( -0.0000000000000000000, -1.000000000000000000, -0.0000000000000000000 ) ) ;
#571 = APPLICATION_CONTEXT ( 'automotive_design' ) ;
#572 = ORIENTED_EDGE ( 'NONE', *, *, #369, .T. ) ;
#573 = VECTOR ( 'NONE', #866, 1000.000000000000000 ) ;
#574 = ORIENTED_EDGE ( 'NONE', *, *, #199, .T. ) ;
#575 = DIRECTION ( 'NONE',  ( -0.0000000000000000000, 1.000000000000000000, -0.0000000000000000000 ) ) ;
#576 = DIRECTION ( 'NONE',  ( 1.000000000000000000, -0.0000000000000000000, 1.113906341594696500E-016 ) ) ;
#577 = EDGE_CURVE ( 'NONE', #1117, #537, #1083, .T. ) ;
#578 = AXIS2_PLACEMENT_3D ( 'NONE', #583, #879, #29 ) ;
#579 = DIRECTION ( 'NONE',  ( -0.0000000000000000000, -1.000000000000000000, -0.0000000000000000000 ) ) ;
#580 =( GEOMETRIC_REPRESENTATION_CONTEXT ( 3 ) GLOBAL_UNCERTAINTY_ASSIGNED_CONTEXT ( ( #363 ) ) GLOBAL_UNIT_ASSIGNED_CONTEXT ( ( #83, #1241, #939 ) ) REPRESENTATION_CONTEXT ( 'NONE', 'WORKASPACE' ) );
#581 = FACE_OUTER_BOUND ( 'NONE', #498, .T. ) ;
#582 = DIRECTION ( 'NONE',  ( 0.0000000000000000000, 0.0000000000000000000, 1.000000000000000000 ) ) ;
#583 = CARTESIAN_POINT ( 'NONE',  ( 0.0000000000000000000, 1.030000000000000000, 0.6460781715392042200 ) ) ;
#584 = CIRCLE ( 'NONE', #455, 1.080000000000000300 ) ;
#585 = ORIENTED_EDGE ( 'NONE', *, *, #219, .T. ) ;
#586 = FILL_AREA_STYLE_COLOUR ( '', #991 ) ;
#587 = DIRECTION ( 'NONE',  ( 0.0000000000000000000, 0.0000000000000000000, 1.000000000000000000 ) ) ;
#588 = ORIENTED_EDGE ( 'NONE', *, *, #160, .F. ) ;
#589 = PRESENTATION_STYLE_ASSIGNMENT (( #796 ) ) ;
#590 = DIRECTION ( 'NONE',  ( 0.0000000000000000000, 0.0000000000000000000, 1.000000000000000000 ) ) ;
#591 = EDGE_LOOP ( 'NONE', ( #789, #227, #1065, #173 ) ) ;
#592 = CARTESIAN_POINT ( 'NONE',  ( 0.0000000000000000000, 1.050000000000000000, 0.0000000000000000000 ) ) ;
#593 = DIRECTION ( 'NONE',  ( -0.0000000000000000000, -1.000000000000000000, -0.0000000000000000000 ) ) ;
#594 = LINE ( 'NONE', #755, #14 ) ;
#595 = EDGE_CURVE ( 'NONE', #832, #359, #338, .T. ) ;
#596 = PRESENTATION_STYLE_ASSIGNMENT (( #273 ) ) ;
#597 = DIRECTION ( 'NONE',  ( 0.0000000000000000000, 1.000000000000000000, 0.0000000000000000000 ) ) ;
#598 = CARTESIAN_POINT ( 'NONE',  ( 0.0000000000000000000, -0.3199999999999999500, -1.080000000000000300 ) ) ;
#599 = CARTESIAN_POINT ( 'NONE',  ( 0.0000000000000000000, 1.030000000000000000, 0.8215684478499190000 ) ) ;
#600 =( GEOMETRIC_REPRESENTATION_CONTEXT ( 3 ) GLOBAL_UNCERTAINTY_ASSIGNED_CONTEXT ( ( #221 ) ) GLOBAL_UNIT_ASSIGNED_CONTEXT ( ( #54, #815, #721 ) ) REPRESENTATION_CONTEXT ( 'NONE', 'WORKASPACE' ) );
#601 = DIRECTION ( 'NONE',  ( 1.000000000000000000, -0.0000000000000000000, 8.503546450866701300E-016 ) ) ;
#602 = ADVANCED_FACE ( 'NONE', ( #581 ), #616, .T. ) ;
#603 = DIRECTION ( 'NONE',  ( 0.0000000000000000000, 1.000000000000000000, 0.0000000000000000000 ) ) ;
#604 = CIRCLE ( 'NONE', #64, 1.080000000000000300 ) ;
#605 = ORIENTED_EDGE ( 'NONE', *, *, #612, .T. ) ;
#606 = AXIS2_PLACEMENT_3D ( 'NONE', #901, #1223, #608 ) ;
#607 = CARTESIAN_POINT ( 'NONE',  ( 0.0000000000000000000, -0.3199999999999999500, 0.9300000000000002700 ) ) ;
#608 = DIRECTION ( 'NONE',  ( 1.000000000000000000, 0.0000000000000000000, -0.0000000000000000000 ) ) ;
#609 =( GEOMETRIC_REPRESENTATION_CONTEXT ( 3 ) GLOBAL_UNCERTAINTY_ASSIGNED_CONTEXT ( ( #135 ) ) GLOBAL_UNIT_ASSIGNED_CONTEXT ( ( #827, #945, #722 ) ) REPRESENTATION_CONTEXT ( 'NONE', 'WORKASPACE' ) );
#610 = AXIS2_PLACEMENT_3D ( 'NONE', #1106, #593, #781 ) ;
#611 = FACE_OUTER_BOUND ( 'NONE', #887, .T. ) ;
#612 = EDGE_CURVE ( 'NONE', #11, #1011, #604, .T. ) ;
#613 = EDGE_CURVE ( 'NONE', #1206, #952, #989, .T. ) ;
#614 = CARTESIAN_POINT ( 'NONE',  ( 0.2550000000000000000, 0.0000000000000000000, -3.174999999999999800 ) ) ;
#615 = CARTESIAN_POINT ( 'NONE',  ( -1.049464148982708600, 0.1999999999999999800, 0.2550000000000000000 ) ) ;
#616 = TOROIDAL_SURFACE ( 'NONE', #898, 0.9300000000000002700, 0.1499999999999999900 ) ;
#617 = MANIFOLD_SOLID_BREP ( 'Cut-Extrude1', #125 ) ;
#618 =( NAMED_UNIT ( * ) SI_UNIT ( $, .STERADIAN. ) SOLID_ANGLE_UNIT ( ) );
#619 = FACE_OUTER_BOUND ( 'NONE', #925, .T. ) ;
#620 = ORIENTED_EDGE ( 'NONE', *, *, #254, .F. ) ;
#621 = ORIENTED_EDGE ( 'NONE', *, *, #683, .T. ) ;
#622 = PRESENTATION_LAYER_ASSIGNMENT (  '', '', ( #831 ) ) ;
#623 = VECTOR ( 'NONE', #351, 1000.000000000000000 ) ;
#624 = FILL_AREA_STYLE_COLOUR ( '', #225 ) ;
#625 = ORIENTED_EDGE ( 'NONE', *, *, #909, .T. ) ;
#626 = AXIS2_PLACEMENT_3D ( 'NONE', #415, #1099, #698 ) ;
#627 = DIRECTION ( 'NONE',  ( 0.0000000000000000000, 1.000000000000000000, 0.0000000000000000000 ) ) ;
#628 = VECTOR ( 'NONE', #569, 1000.000000000000000 ) ;
#629 = PLANE ( 'NONE',  #255 ) ;
#630 = CARTESIAN_POINT ( 'NONE',  ( 0.2550000000000000000, 0.2000000000000000100, 0.2550000000000000000 ) ) ;
#631 = LINE ( 'NONE', #191, #389 ) ;
#632 = CARTESIAN_POINT ( 'NONE',  ( 0.0000000000000000000, 0.0000000000000000000, 0.0000000000000000000 ) ) ;
#633 = DIRECTION ( 'NONE',  ( 0.0000000000000000000, 0.0000000000000000000, 1.000000000000000000 ) ) ;
#634 = CARTESIAN_POINT ( 'NONE',  ( -3.175000000000000700, 0.2000000000000000100, 0.2550000000000000000 ) ) ;
#635 = AXIS2_PLACEMENT_3D ( 'NONE', #851, #1150, #954 ) ;
#636 = PRESENTATION_LAYER_ASSIGNMENT (  '', '', ( #559 ) ) ;
#637 = COLOUR_RGB ( '',0.8509803921568627200, 0.8509803921568627200, 0.8509803921568627200 ) ;
#638 = ORIENTED_EDGE ( 'NONE', *, *, #675, .T. ) ;
#639 = SURFACE_STYLE_USAGE ( .BOTH. , #1232 ) ;
#640 = CARTESIAN_POINT ( 'NONE',  ( 0.2550000000000000000, 0.2000000000000000100, 3.174999999999999800 ) ) ;
#641 = CIRCLE ( 'NONE', #438, 1.080000000000000300 ) ;
#642 = AXIS2_PLACEMENT_3D ( 'NONE', #38, #687, #704 ) ;
#643 = PRESENTATION_STYLE_ASSIGNMENT (( #274 ) ) ;
#644 = EDGE_CURVE ( 'NONE', #752, #1024, #280, .T. ) ;
#645 = ORIENTED_EDGE ( 'NONE', *, *, #219, .F. ) ;
#646 = FILL_AREA_STYLE ('',( #1243 ) ) ;
#647 = ORIENTED_EDGE ( 'NONE', *, *, #761, .T. ) ;
#648 = AXIS2_PLACEMENT_3D ( 'NONE', #63, #733, #1131 ) ;
#649 = CIRCLE ( 'NONE', #642, 0.9300000000000002700 ) ;
#650 = ORIENTED_EDGE ( 'NONE', *, *, #936, .F. ) ;
#651 = ORIENTED_EDGE ( 'NONE', *, *, #1061, .T. ) ;
#652 = CARTESIAN_POINT ( 'NONE',  ( 0.0000000000000000000, 0.2000000000000000100, 0.0000000000000000000 ) ) ;
#653 = SURFACE_STYLE_USAGE ( .BOTH. , #926 ) ;
#654 = UNCERTAINTY_MEASURE_WITH_UNIT (LENGTH_MEASURE( 1.000000000000000100E-005 ), #766, 'distance_accuracy_value', 'NONE');
#655 = SURFACE_SIDE_STYLE ('',( #826 ) ) ;
#656 = CARTESIAN_POINT ( 'NONE',  ( 0.0000000000000000000, 1.050000000000000000, 0.0000000000000000000 ) ) ;
#657 = EDGE_CURVE ( 'NONE', #750, #113, #321, .T. ) ;
#658 = VECTOR ( 'NONE', #139, 1000.000000000000000 ) ;
#659 = EDGE_CURVE ( 'NONE', #281, #752, #250, .T. ) ;
#660 = CARTESIAN_POINT ( 'NONE',  ( -0.2550000000000003400, 0.2000000000000000100, 0.2550000000000000000 ) ) ;
#661 = EDGE_LOOP ( 'NONE', ( #61, #574, #993, #525 ) ) ;
#662 = ORIENTED_EDGE ( 'NONE', *, *, #427, .F. ) ;
#663 = CARTESIAN_POINT ( 'NONE',  ( 0.0000000000000000000, 1.050000000000000000, 0.0000000000000000000 ) ) ;
#664 = CIRCLE ( 'NONE', #843, 0.1754902763107148200 ) ;
#665 = FILL_AREA_STYLE_COLOUR ( '', #507 ) ;
#666 = COLOUR_RGB ( '',0.8509803921568627200, 0.8509803921568627200, 0.8509803921568627200 ) ;
#667 = ORIENTED_EDGE ( 'NONE', *, *, #819, .F. ) ;
#668 = EDGE_CURVE ( 'NONE', #1217, #527, #924, .T. ) ;
#669 = PLANE ( 'NONE',  #1160 ) ;
#670 = AXIS2_PLACEMENT_3D ( 'NONE', #1110, #434, #1216 ) ;
#671 = FILL_AREA_STYLE_COLOUR ( '', #1109 ) ;
#672 = CARTESIAN_POINT ( 'NONE',  ( 0.0000000000000000000, 1.050000000000000000, -1.080000000000000300 ) ) ;
#673 = VECTOR ( 'NONE', #790, 1000.000000000000000 ) ;
#674 = AXIS2_PLACEMENT_3D ( 'NONE', #760, #282, #387 ) ;
#675 = EDGE_CURVE ( 'NONE', #728, #1178, #445, .T. ) ;
#676 = DIRECTION ( 'NONE',  ( 0.0000000000000000000, 0.0000000000000000000, 1.000000000000000000 ) ) ;
#677 = EDGE_LOOP ( 'NONE', ( #714, #1108, #192, #585, #265 ) ) ;
#678 = LINE ( 'NONE', #1207, #481 ) ;
#679 = CARTESIAN_POINT ( 'NONE',  ( 0.2550000000000000000, 0.0000000000000000000, -3.174999999999999800 ) ) ;
#680 = DIRECTION ( 'NONE',  ( -0.0000000000000000000, 1.000000000000000000, 0.0000000000000000000 ) ) ;
#681 = SURFACE_STYLE_FILL_AREA ( #1228 ) ;
#682 = FILL_AREA_STYLE ('',( #1171 ) ) ;
#683 = EDGE_CURVE ( 'NONE', #910, #1242, #238, .T. ) ;
#684 = DIRECTION ( 'NONE',  ( -0.0000000000000000000, -1.000000000000000000, -0.0000000000000000000 ) ) ;
#685 = VECTOR ( 'NONE', #30, 1000.000000000000000 ) ;
#686 = FACE_OUTER_BOUND ( 'NONE', #286, .T. ) ;
#687 = DIRECTION ( 'NONE',  ( -0.0000000000000000000, -1.000000000000000000, -0.0000000000000000000 ) ) ;
#688 = EDGE_CURVE ( 'NONE', #1052, #1024, #1102, .T. ) ;
#689 =( GEOMETRIC_REPRESENTATION_CONTEXT ( 3 ) GLOBAL_UNCERTAINTY_ASSIGNED_CONTEXT ( ( #802 ) ) GLOBAL_UNIT_ASSIGNED_CONTEXT ( ( #439, #1209, #618 ) ) REPRESENTATION_CONTEXT ( 'NONE', 'WORKASPACE' ) );
#690 = CARTESIAN_POINT ( 'NONE',  ( 0.0000000000000000000, 1.050000000000000000, 0.6460781715392042200 ) ) ;
#691 = SHAPE_DEFINITION_REPRESENTATION ( #127, #1218 ) ;
#692 = DIRECTION ( 'NONE',  ( -1.000000000000000000, -0.0000000000000000000, 1.113906341594696500E-016 ) ) ;
#693 = ADVANCED_FACE ( 'NONE', ( #894 ), #950, .F. ) ;
#694 = FILL_AREA_STYLE ('',( #892 ) ) ;
#695 = ORIENTED_EDGE ( 'NONE', *, *, #180, .F. ) ;
#696 = DIRECTION ( 'NONE',  ( -0.0000000000000000000, 1.000000000000000000, -0.0000000000000000000 ) ) ;
#697 = ORIENTED_EDGE ( 'NONE', *, *, #1001, .T. ) ;
#698 = DIRECTION ( 'NONE',  ( 0.0000000000000000000, 0.0000000000000000000, 1.000000000000000000 ) ) ;
#699 = AXIS2_PLACEMENT_3D ( 'NONE', #385, #680, #193 ) ;
#700 = FILL_AREA_STYLE ('',( #586 ) ) ;
#701 = ADVANCED_FACE ( 'NONE', ( #1005 ), #148, .T. ) ;
#702 = COLOUR_RGB ( '',0.8509803921568627200, 0.8509803921568627200, 0.8509803921568627200 ) ;
#703 = FILL_AREA_STYLE ('',( #328 ) ) ;
#704 = DIRECTION ( 'NONE',  ( 0.0000000000000000000, 0.0000000000000000000, 1.000000000000000000 ) ) ;
#705 = AXIS2_PLACEMENT_3D ( 'NONE', #491, #888, #787 ) ;
#706 = CARTESIAN_POINT ( 'NONE',  ( 0.2550000000000000000, 0.2000000000000000100, -3.174999999999999800 ) ) ;
#707 = SURFACE_STYLE_FILL_AREA ( #530 ) ;
#708 = DIRECTION ( 'NONE',  ( -0.0000000000000000000, 1.000000000000000000, -0.0000000000000000000 ) ) ;
#709 = PRESENTATION_STYLE_ASSIGNMENT (( #17 ) ) ;
#710 = ORIENTED_EDGE ( 'NONE', *, *, #160, .T. ) ;
#711 = UNCERTAINTY_MEASURE_WITH_UNIT (LENGTH_MEASURE( 1.000000000000000100E-005 ), #80, 'distance_accuracy_value', 'NONE');
#712 = PLANE ( 'NONE',  #870 ) ;
#713 =( GEOMETRIC_REPRESENTATION_CONTEXT ( 3 ) GLOBAL_UNCERTAINTY_ASSIGNED_CONTEXT ( ( #484 ) ) GLOBAL_UNIT_ASSIGNED_CONTEXT ( ( #198, #987, #311 ) ) REPRESENTATION_CONTEXT ( 'NONE', 'WORKASPACE' ) );
#714 = ORIENTED_EDGE ( 'NONE', *, *, #1234, .F. ) ;
#715 = DIRECTION ( 'NONE',  ( -8.503546450866701300E-016, 0.0000000000000000000, 1.000000000000000000 ) ) ;
#716 = ADVANCED_FACE ( 'NONE', ( #137 ), #745, .F. ) ;
#717 = PRESENTATION_LAYER_ASSIGNMENT (  '', '', ( #247 ) ) ;
#718 = EDGE_LOOP ( 'NONE', ( #541, #621, #306, #368 ) ) ;
#719 = LINE ( 'NONE', #956, #628 ) ;
#720 = FACE_OUTER_BOUND ( 'NONE', #56, .T. ) ;
#721 =( NAMED_UNIT ( * ) SI_UNIT ( $, .STERADIAN. ) SOLID_ANGLE_UNIT ( ) );
#722 =( NAMED_UNIT ( * ) SI_UNIT ( $, .STERADIAN. ) SOLID_ANGLE_UNIT ( ) );
#723 = VECTOR ( 'NONE', #555, 1000.000000000000000 ) ;
#724 = ORIENTED_EDGE ( 'NONE', *, *, #99, .F. ) ;
#725 = EDGE_CURVE ( 'NONE', #433, #1124, #1138, .T. ) ;
#726 = ORIENTED_EDGE ( 'NONE', *, *, #903, .T. ) ;
#727 = CARTESIAN_POINT ( 'NONE',  ( 0.0000000000000000000, 0.2000000000000000100, 0.0000000000000000000 ) ) ;
#728 = VERTEX_POINT ( 'NONE', #634 ) ;
#729 =( NAMED_UNIT ( * ) SI_UNIT ( $, .STERADIAN. ) SOLID_ANGLE_UNIT ( ) );
#730 = EDGE_LOOP ( 'NONE', ( #942, #908, #93, #1265 ) ) ;
#731 = AXIS2_PLACEMENT_3D ( 'NONE', #1229, #1225, #143 ) ;
#732 = DIRECTION ( 'NONE',  ( 0.8660254037844374900, 0.0000000000000000000, 0.5000000000000020000 ) ) ;
#733 = DIRECTION ( 'NONE',  ( -0.0000000000000000000, 1.000000000000000000, 0.0000000000000000000 ) ) ;
#734 = VECTOR ( 'NONE', #1264, 1000.000000000000000 ) ;
#735 = STYLED_ITEM ( 'NONE', ( #58 ), #512 ) ;
#736 = PRESENTATION_STYLE_ASSIGNMENT (( #1038 ) ) ;
#737 = VERTEX_POINT ( 'NONE', #68 ) ;
#738 = PRESENTATION_LAYER_ASSIGNMENT (  '', '', ( #283 ) ) ;
#739 = ORIENTED_EDGE ( 'NONE', *, *, #266, .F. ) ;
#740 = SURFACE_SIDE_STYLE ('',( #1095 ) ) ;
#741 = ORIENTED_EDGE ( 'NONE', *, *, #1029, .T. ) ;
#742 = COLOUR_RGB ( '',0.8509803921568627200, 0.8509803921568627200, 0.8509803921568627200 ) ;
#743 = UNCERTAINTY_MEASURE_WITH_UNIT (LENGTH_MEASURE( 1.000000000000000100E-005 ), #374, 'distance_accuracy_value', 'NONE');
#744 = DIRECTION ( 'NONE',  ( 0.0000000000000000000, -0.0000000000000000000, 1.000000000000000000 ) ) ;
#745 = PLANE ( 'NONE',  #648 ) ;
#746 = EDGE_CURVE ( 'NONE', #403, #329, #904, .T. ) ;
#747 =( GEOMETRIC_REPRESENTATION_CONTEXT ( 3 ) GLOBAL_UNCERTAINTY_ASSIGNED_CONTEXT ( ( #520 ) ) GLOBAL_UNIT_ASSIGNED_CONTEXT ( ( #120, #126, #1082 ) ) REPRESENTATION_CONTEXT ( 'NONE', 'WORKASPACE' ) );
#748 = SURFACE_STYLE_FILL_AREA ( #700 ) ;
#749 = PLANE ( 'NONE',  #635 ) ;
#750 = VERTEX_POINT ( 'NONE', #1014 ) ;
#751 = DIRECTION ( 'NONE',  ( 0.0000000000000000000, 1.000000000000000000, 0.0000000000000000000 ) ) ;
#752 = VERTEX_POINT ( 'NONE', #1125 ) ;
#753 = ORIENTED_EDGE ( 'NONE', *, *, #890, .F. ) ;
#754 = PRESENTATION_STYLE_ASSIGNMENT (( #1057 ) ) ;
#755 = CARTESIAN_POINT ( 'NONE',  ( -3.175000000000000300, 0.0000000000000000000, -0.2550000000000000000 ) ) ;
#756 = PRESENTATION_LAYER_ASSIGNMENT (  '', '', ( #124 ) ) ;
#757 = UNCERTAINTY_MEASURE_WITH_UNIT (LENGTH_MEASURE( 1.000000000000000100E-005 ), #873, 'distance_accuracy_value', 'NONE');
#758 = DIRECTION ( 'NONE',  ( -1.113906341594696500E-016, 0.0000000000000000000, 1.000000000000000000 ) ) ;
#759 = DIRECTION ( 'NONE',  ( -0.0000000000000000000, -1.000000000000000000, -0.0000000000000000000 ) ) ;
#760 = CARTESIAN_POINT ( 'NONE',  ( 0.0000000000000000000, 0.9000000000000002400, 0.0000000000000000000 ) ) ;
#761 = EDGE_CURVE ( 'NONE', #832, #1037, #147, .T. ) ;
#762 = EDGE_LOOP ( 'NONE', ( #529, #953, #1064, #1094 ) ) ;
#763 = FILL_AREA_STYLE_COLOUR ( '', #435 ) ;
#764 = PRESENTATION_STYLE_ASSIGNMENT (( #980 ) ) ;
#765 = ORIENTED_EDGE ( 'NONE', *, *, #345, .T. ) ;
#766 =( LENGTH_UNIT ( ) NAMED_UNIT ( * ) SI_UNIT ( .MILLI., .METRE. ) );
#767 = EDGE_CURVE ( 'NONE', #119, #752, #961, .T. ) ;
#768 = VERTEX_POINT ( 'NONE', #182 ) ;
#770 = DIRECTION ( 'NONE',  ( 0.0000000000000000000, 0.0000000000000000000, -1.000000000000000000 ) ) ;
#769 = CARTESIAN_POINT ( 'NONE',  ( -0.2550000000000000000, 0.2000000000000000100, -3.174999999999999800 ) ) ;
#771 = APPLICATION_PROTOCOL_DEFINITION ( 'draft international standard', 'automotive_design', 1998, #969 ) ;
#772 = ADVANCED_FACE ( 'NONE', ( #841 ), #215, .T. ) ;
#773 = AXIS2_PLACEMENT_3D ( 'NONE', #141, #442, #344 ) ;
#774 = CARTESIAN_POINT ( 'NONE',  ( -1.049464148982708600, 0.0000000000000000000, 0.2550000000000000000 ) ) ;
#775 = CARTESIAN_POINT ( 'NONE',  ( 0.0000000000000000000, 0.0000000000000000000, 0.0000000000000000000 ) ) ;
#776 = AXIS2_PLACEMENT_3D ( 'NONE', #660, #364, #847 ) ;
#777 = PRESENTATION_LAYER_ASSIGNMENT (  '', '', ( #804 ) ) ;
#778 = ADVANCED_FACE ( 'NONE', ( #1189 ), #669, .F. ) ;
#779 = DIRECTION ( 'NONE',  ( 0.0000000000000000000, 1.000000000000000000, 0.0000000000000000000 ) ) ;
#780 = SURFACE_SIDE_STYLE ('',( #1085 ) ) ;
#781 = DIRECTION ( 'NONE',  ( 0.0000000000000000000, 0.0000000000000000000, 1.000000000000000000 ) ) ;
#782 = VERTEX_POINT ( 'NONE', #383 ) ;
#783 = CARTESIAN_POINT ( 'NONE',  ( -3.175000000000000300, 0.2000000000000000100, -0.2550000000000000000 ) ) ;
#784 = EDGE_LOOP ( 'NONE', ( #625, #710 ) ) ;
#785 = CARTESIAN_POINT ( 'NONE',  ( -3.175000000000000300, 0.2000000000000000100, -0.2550000000000000000 ) ) ;
#786 = CIRCLE ( 'NONE', #86, 1.080000000000000300 ) ;
#787 = DIRECTION ( 'NONE',  ( 0.0000000000000000000, 0.0000000000000000000, 1.000000000000000000 ) ) ;
#788 = DIRECTION ( 'NONE',  ( 0.0000000000000000000, 0.0000000000000000000, 1.000000000000000000 ) ) ;
#789 = ORIENTED_EDGE ( 'NONE', *, *, #972, .F. ) ;
#790 = DIRECTION ( 'NONE',  ( -0.0000000000000000000, 1.000000000000000000, -0.0000000000000000000 ) ) ;
#791 = PRESENTATION_LAYER_ASSIGNMENT (  '', '', ( #1089 ) ) ;
#792 = ADVANCED_FACE ( 'NONE', ( #335 ), #174, .F. ) ;
#793 = PRESENTATION_LAYER_ASSIGNMENT (  '', '', ( #735 ) ) ;
#794 = ADVANCED_FACE ( 'NONE', ( #1074 ), #376, .F. ) ;
#795 = DIRECTION ( 'NONE',  ( 0.0000000000000000000, -0.0000000000000000000, 1.000000000000000000 ) ) ;
#796 = SURFACE_STYLE_USAGE ( .BOTH. , #36 ) ;
#797 = PLANE ( 'NONE',  #150 ) ;
#798 = MECHANICAL_DESIGN_GEOMETRIC_PRESENTATION_REPRESENTATION (  '', ( #1137 ), #747 ) ;
#799 = LINE ( 'NONE', #1063, #1035 ) ;
#800 = EDGE_LOOP ( 'NONE', ( #25, #482, #333, #326 ) ) ;
#801 = VERTEX_POINT ( 'NONE', #457 ) ;
#802 = UNCERTAINTY_MEASURE_WITH_UNIT (LENGTH_MEASURE( 1.000000000000000100E-005 ), #439, 'distance_accuracy_value', 'NONE');
#803 = CARTESIAN_POINT ( 'NONE',  ( 0.2550000000000000000, 0.2000000000000000100, 0.2550000000000000000 ) ) ;
#804 = STYLED_ITEM ( 'NONE', ( #240 ), #131 ) ;
#805 = ORIENTED_EDGE ( 'NONE', *, *, #1244, .T. ) ;
#806 = CARTESIAN_POINT ( 'NONE',  ( 0.2550000000000000000, 0.2000000000000000100, -3.174999999999999800 ) ) ;
#807 = ORIENTED_EDGE ( 'NONE', *, *, #464, .F. ) ;
#808 = ADVANCED_FACE ( 'NONE', ( #982 ), #467, .T. ) ;
#809 = COLOUR_RGB ( '',0.8509803921568627200, 0.8509803921568627200, 0.8509803921568627200 ) ;
#810 = CARTESIAN_POINT ( 'NONE',  ( 0.0000000000000000000, -0.3199999999999999500, 0.0000000000000000000 ) ) ;
#811 = DIRECTION ( 'NONE',  ( 0.0000000000000000000, 0.0000000000000000000, 1.000000000000000000 ) ) ;
#812 = ADVANCED_FACE ( 'NONE', ( #517 ), #749, .T. ) ;
#813 = DIRECTION ( 'NONE',  ( 0.0000000000000000000, 0.0000000000000000000, 1.000000000000000000 ) ) ;
#814 = LINE ( 'NONE', #640, #79 ) ;
#815 =( NAMED_UNIT ( * ) PLANE_ANGLE_UNIT ( ) SI_UNIT ( $, .RADIAN. ) );
#816 = CYLINDRICAL_SURFACE ( 'NONE', #1120, 1.080000000000000300 ) ;
#817 = DIRECTION ( 'NONE',  ( -1.000000000000000000, -0.0000000000000000000, -0.0000000000000000000 ) ) ;
#818 = VERTEX_POINT ( 'NONE', #966 ) ;
#819 = EDGE_CURVE ( 'NONE', #1036, #1073, #594, .T. ) ;
#820 = ORIENTED_EDGE ( 'NONE', *, *, #560, .T. ) ;
#821 = PRESENTATION_LAYER_ASSIGNMENT (  '', '', ( #392 ) ) ;
#822 = FILL_AREA_STYLE_COLOUR ( '', #562 ) ;
#823 = SURFACE_STYLE_FILL_AREA ( #1130 ) ;
#824 = ORIENTED_EDGE ( 'NONE', *, *, #975, .T. ) ;
#825 = DIRECTION ( 'NONE',  ( 0.0000000000000000000, 1.000000000000000000, 0.0000000000000000000 ) ) ;
#826 = SURFACE_STYLE_FILL_AREA ( #87 ) ;
#827 =( LENGTH_UNIT ( ) NAMED_UNIT ( * ) SI_UNIT ( .MILLI., .METRE. ) );
#828 = DIRECTION ( 'NONE',  ( -0.0000000000000000000, 1.000000000000000000, 0.0000000000000000000 ) ) ;
#829 = CIRCLE ( 'NONE', #836, 1.080000000000000300 ) ;
#830 = DIRECTION ( 'NONE',  ( 0.0000000000000000000, 1.000000000000000000, 0.0000000000000000000 ) ) ;
#831 = STYLED_ITEM ( 'NONE', ( #533 ), #907 ) ;
#832 = VERTEX_POINT ( 'NONE', #979 ) ;
#833 = EDGE_CURVE ( 'NONE', #1206, #832, #461, .T. ) ;
#834 = LINE ( 'NONE', #868, #970 ) ;
#835 = ORIENTED_EDGE ( 'NONE', *, *, #688, .F. ) ;
#836 = AXIS2_PLACEMENT_3D ( 'NONE', #15, #485, #582 ) ;
#837 = EDGE_CURVE ( 'NONE', #818, #281, #719, .T. ) ;
#838 = VERTEX_POINT ( 'NONE', #382 ) ;
#839 = TOROIDAL_SURFACE ( 'NONE', #1145, 0.9300000000000002700, 0.1499999999999999900 ) ;
#840 = ORIENTED_EDGE ( 'NONE', *, *, #1034, .F. ) ;
#841 = FACE_OUTER_BOUND ( 'NONE', #1200, .T. ) ;
#842 = EDGE_CURVE ( 'NONE', #737, #1117, #999, .T. ) ;
#843 = AXIS2_PLACEMENT_3D ( 'NONE', #912, #226, #526 ) ;
#844 =( NAMED_UNIT ( * ) SI_UNIT ( $, .STERADIAN. ) SOLID_ANGLE_UNIT ( ) );
#845 = AXIS2_PLACEMENT_3D ( 'NONE', #169, #82, #920 ) ;
#846 = CYLINDRICAL_SURFACE ( 'NONE', #934, 1.080000000000000300 ) ;
#847 = DIRECTION ( 'NONE',  ( 0.0000000000000000000, 0.0000000000000000000, -1.000000000000000000 ) ) ;
#848 = CARTESIAN_POINT ( 'NONE',  ( -0.2550000000000000000, 0.0000000000000000000, -3.174999999999999800 ) ) ;
#849 = ORIENTED_EDGE ( 'NONE', *, *, #946, .F. ) ;
#850 = ORIENTED_EDGE ( 'NONE', *, *, #1244, .F. ) ;
#851 = CARTESIAN_POINT ( 'NONE',  ( 0.0000000000000000000, 0.2000000000000000100, 0.0000000000000000000 ) ) ;
#852 = PRESENTATION_STYLE_ASSIGNMENT (( #164 ) ) ;
#853 = DIRECTION ( 'NONE',  ( -1.000000000000000000, -0.0000000000000000000, 1.113906341594696500E-016 ) ) ;
#854 = SURFACE_STYLE_FILL_AREA ( #1169 ) ;
#855 = VECTOR ( 'NONE', #965, 999.9999999999998900 ) ;
#856 = AXIS2_PLACEMENT_3D ( 'NONE', #607, #31, #209 ) ;
#857 =( NAMED_UNIT ( * ) PLANE_ANGLE_UNIT ( ) SI_UNIT ( $, .RADIAN. ) );
#858 = CARTESIAN_POINT ( 'NONE',  ( 0.2550000000000000000, 1.050000000000000000, 1.049464148982708600 ) ) ;
#859 = EDGE_CURVE ( 'NONE', #1020, #1242, #350, .T. ) ;
#860 = UNCERTAINTY_MEASURE_WITH_UNIT (LENGTH_MEASURE( 1.000000000000000100E-005 ), #13, 'distance_accuracy_value', 'NONE');
#861 = PLANE ( 'NONE',  #1147 ) ;
#862 = SURFACE_STYLE_FILL_AREA ( #146 ) ;
#863 = DIRECTION ( 'NONE',  ( 0.0000000000000000000, 0.0000000000000000000, 1.000000000000000000 ) ) ;
#864 = VECTOR ( 'NONE', #409, 1000.000000000000000 ) ;
#865 = EDGE_CURVE ( 'NONE', #1124, #329, #261, .T. ) ;
#866 = DIRECTION ( 'NONE',  ( 1.000000000000000000, 0.0000000000000000000, 0.0000000000000000000 ) ) ;
#868 = CARTESIAN_POINT ( 'NONE',  ( 1.049464148982708600, 1.050000000000000000, 0.2550000000000000000 ) ) ;
#867 = CARTESIAN_POINT ( 'NONE',  ( 0.0000000000000000000, -0.4699999999999999700, 0.0000000000000000000 ) ) ;
#869 = SURFACE_STYLE_USAGE ( .BOTH. , #97 ) ;
#870 = AXIS2_PLACEMENT_3D ( 'NONE', #336, #531, #248 ) ;
#871 = VECTOR ( 'NONE', #684, 1000.000000000000000 ) ;
#872 = PRODUCT_CONTEXT ( 'NONE', #571, 'mechanical' ) ;
#873 =( LENGTH_UNIT ( ) NAMED_UNIT ( * ) SI_UNIT ( .MILLI., .METRE. ) );
#874 = DIRECTION ( 'NONE',  ( -0.0000000000000000000, -1.000000000000000000, -0.0000000000000000000 ) ) ;
#875 = CARTESIAN_POINT ( 'NONE',  ( 0.0000000000000000000, 0.9000000000000002400, -1.080000000000000300 ) ) ;
#876 = SURFACE_SIDE_STYLE ('',( #1236 ) ) ;
#877 = PRESENTATION_STYLE_ASSIGNMENT (( #524 ) ) ;
#878 = CARTESIAN_POINT ( 'NONE',  ( 0.0000000000000000000, -0.4699999999999999700, 0.9300000000000002700 ) ) ;
#879 = DIRECTION ( 'NONE',  ( 0.0000000000000000000, 1.000000000000000000, 0.0000000000000000000 ) ) ;
#880 = LINE ( 'NONE', #785, #156 ) ;
#881 = EDGE_LOOP ( 'NONE', ( #605, #456, #884, #1021, #1230, #167, #820, #753, #1103, #447, #471, #620 ) ) ;
#882 = ORIENTED_EDGE ( 'NONE', *, *, #450, .F. ) ;
#883 =( NAMED_UNIT ( * ) SI_UNIT ( $, .STERADIAN. ) SOLID_ANGLE_UNIT ( ) );
#884 = ORIENTED_EDGE ( 'NONE', *, *, #859, .T. ) ;
#885 = CARTESIAN_POINT ( 'NONE',  ( 0.2550000000000000000, 0.0000000000000000000, 0.2550000000000000000 ) ) ;
#886 = AXIS2_PLACEMENT_3D ( 'NONE', #12, #1167, #289 ) ;
#887 = EDGE_LOOP ( 'NONE', ( #452, #1032, #805, #882 ) ) ;
#888 = DIRECTION ( 'NONE',  ( -1.000000000000000000, 0.0000000000000000000, 0.0000000000000000000 ) ) ;
#889 = CARTESIAN_POINT ( 'NONE',  ( -0.2550000000000003400, 0.1999999999999999800, 1.049464148982708600 ) ) ;
#890 = EDGE_CURVE ( 'NONE', #1117, #162, #487, .T. ) ;
#891 = STYLED_ITEM ( 'NONE', ( #96 ), #412 ) ;
#892 = FILL_AREA_STYLE_COLOUR ( '', #55 ) ;
#893 = CIRCLE ( 'NONE', #856, 0.1499999999999999700 ) ;
#894 = FACE_OUTER_BOUND ( 'NONE', #499, .T. ) ;
#895 = SURFACE_STYLE_FILL_AREA ( #897 ) ;
#896 = EDGE_LOOP ( 'NONE', ( #243, #206 ) ) ;
#897 = FILL_AREA_STYLE ('',( #405 ) ) ;
#898 = AXIS2_PLACEMENT_3D ( 'NONE', #155, #830, #916 ) ;
#899 = EDGE_CURVE ( 'NONE', #1073, #801, #1233, .T. ) ;
#900 = DIRECTION ( 'NONE',  ( 1.224646799147353200E-016, 0.0000000000000000000, -1.000000000000000000 ) ) ;
#901 = CARTESIAN_POINT ( 'NONE',  ( -0.2550000000000000000, 0.2000000000000000100, -3.174999999999999800 ) ) ;
#902 = LINE ( 'NONE', #783, #103 ) ;
#903 = EDGE_CURVE ( 'NONE', #359, #1242, #960, .T. ) ;
#904 = LINE ( 'NONE', #848, #122 ) ;
#905 = FACE_OUTER_BOUND ( 'NONE', #800, .T. ) ;
#906 = DIRECTION ( 'NONE',  ( 0.0000000000000000000, 0.0000000000000000000, 1.000000000000000000 ) ) ;
#907 = ADVANCED_FACE ( 'NONE', ( #686 ), #561, .F. ) ;
#908 = ORIENTED_EDGE ( 'NONE', *, *, #837, .F. ) ;
#909 = EDGE_CURVE ( 'NONE', #1050, #516, #1161, .T. ) ;
#910 = VERTEX_POINT ( 'NONE', #297 ) ;
#911 = FACE_OUTER_BOUND ( 'NONE', #677, .T. ) ;
#912 = CARTESIAN_POINT ( 'NONE',  ( 0.0000000000000000000, 1.050000000000000000, 0.6460781715392042200 ) ) ;
#913 = MECHANICAL_DESIGN_GEOMETRIC_PRESENTATION_REPRESENTATION (  '', ( #247 ), #218 ) ;
#914 = AXIS2_PLACEMENT_3D ( 'NONE', #90, #397, #1158 ) ;
#915 = EDGE_LOOP ( 'NONE', ( #239, #267, #1006, #539 ) ) ;
#916 = DIRECTION ( 'NONE',  ( 0.0000000000000000000, 0.0000000000000000000, 1.000000000000000000 ) ) ;
#917 = CARTESIAN_POINT ( 'NONE',  ( -0.2550000000000003400, 0.2000000000000000100, 2.880551362713288800 ) ) ;
#918 = MECHANICAL_DESIGN_GEOMETRIC_PRESENTATION_REPRESENTATION (  '', ( #504 ), #60 ) ;
#919 = PLANE ( 'NONE',  #731 ) ;
#920 = DIRECTION ( 'NONE',  ( 0.0000000000000000000, 0.0000000000000000000, 1.000000000000000000 ) ) ;
#921 = VECTOR ( 'NONE', #505, 1000.000000000000000 ) ;
#922 = PLANE ( 'NONE',  #536 ) ;
#923 = CARTESIAN_POINT ( 'NONE',  ( 1.049464148982708600, 1.050000000000000000, -0.2550000000000001700 ) ) ;
#924 = CIRCLE ( 'NONE', #1187, 0.9300000000000002700 ) ;
#925 = EDGE_LOOP ( 'NONE', ( #73, #1181, #1086, #741, #1250, #175, #940, #951, #43, #322, #550, #245 ) ) ;
#926 = SURFACE_SIDE_STYLE ('',( #707 ) ) ;
#927 = STYLED_ITEM ( 'NONE', ( #1112 ), #1218 ) ;
#928 = ORIENTED_EDGE ( 'NONE', *, *, #946, .T. ) ;
#929 = DIRECTION ( 'NONE',  ( 0.0000000000000000000, -0.0000000000000000000, 1.000000000000000000 ) ) ;
#930 = CARTESIAN_POINT ( 'NONE',  ( 0.0000000000000000000, 0.0000000000000000000, 0.0000000000000000000 ) ) ;
#931 = ORIENTED_EDGE ( 'NONE', *, *, #675, .F. ) ;
#932 = VECTOR ( 'NONE', #692, 1000.000000000000000 ) ;
#933 = PRESENTATION_STYLE_ASSIGNMENT (( #869 ) ) ;
#934 = AXIS2_PLACEMENT_3D ( 'NONE', #663, #570, #770 ) ;
#935 = STYLED_ITEM ( 'NONE', ( #754 ), #808 ) ;
#936 = EDGE_CURVE ( 'NONE', #818, #1024, #313, .T. ) ;
#937 = ORIENTED_EDGE ( 'NONE', *, *, #369, .F. ) ;
#938 = VECTOR ( 'NONE', #136, 1000.000000000000000 ) ;
#939 =( NAMED_UNIT ( * ) SI_UNIT ( $, .STERADIAN. ) SOLID_ANGLE_UNIT ( ) );
#940 = ORIENTED_EDGE ( 'NONE', *, *, #890, .T. ) ;
#941 = EDGE_CURVE ( 'NONE', #527, #1217, #1072, .T. ) ;
#942 = ORIENTED_EDGE ( 'NONE', *, *, #1132, .T. ) ;
#943 = MECHANICAL_DESIGN_GEOMETRIC_PRESENTATION_REPRESENTATION (  '', ( #1089 ), #1238 ) ;
#944 =( LENGTH_UNIT ( ) NAMED_UNIT ( * ) SI_UNIT ( .MILLI., .METRE. ) );
#945 =( NAMED_UNIT ( * ) PLANE_ANGLE_UNIT ( ) SI_UNIT ( $, .RADIAN. ) );
#946 = EDGE_CURVE ( 'NONE', #119, #990, #130, .T. ) ;
#947 = COLOUR_RGB ( '',0.1137254901960784300, 0.1137254901960784300, 0.1137254901960784300 ) ;
#948 = STYLED_ITEM ( 'NONE', ( #589 ), #430 ) ;
#949 =( LENGTH_UNIT ( ) NAMED_UNIT ( * ) SI_UNIT ( .MILLI., .METRE. ) );
#950 = PLANE ( 'NONE',  #459 ) ;
#951 = ORIENTED_EDGE ( 'NONE', *, *, #450, .T. ) ;
#952 = VERTEX_POINT ( 'NONE', #404 ) ;
#953 = ORIENTED_EDGE ( 'NONE', *, *, #613, .T. ) ;
#954 = DIRECTION ( 'NONE',  ( 0.0000000000000000000, -0.0000000000000000000, 1.000000000000000000 ) ) ;
#955 = ORIENTED_EDGE ( 'NONE', *, *, #899, .T. ) ;
#957 = CARTESIAN_POINT ( 'NONE',  ( 0.0000000000000000000, 1.050000000000000000, -1.080000000000000300 ) ) ;
#956 = CARTESIAN_POINT ( 'NONE',  ( 3.174999999999999800, 0.2000000000000000100, -0.2550000000000004500 ) ) ;
#958 =( LENGTH_UNIT ( ) NAMED_UNIT ( * ) SI_UNIT ( .MILLI., .METRE. ) );
#959 = STYLED_ITEM ( 'NONE', ( #736 ), #617 ) ;
#960 = LINE ( 'NONE', #394, #410 ) ;
#961 = CIRCLE ( 'NONE', #1252, 1.080000000000000300 ) ;
#963 = DIRECTION ( 'NONE',  ( 0.0000000000000000000, 0.0000000000000000000, 1.000000000000000000 ) ) ;
#962 = CARTESIAN_POINT ( 'NONE',  ( -0.2550000000000003400, 0.2000000000000000100, 0.2550000000000000000 ) ) ;
#964 =( LENGTH_UNIT ( ) NAMED_UNIT ( * ) SI_UNIT ( .MILLI., .METRE. ) );
#965 = DIRECTION ( 'NONE',  ( 0.8660254037844374900, 0.0000000000000000000, 0.5000000000000020000 ) ) ;
#966 = CARTESIAN_POINT ( 'NONE',  ( 3.174999999999999800, 0.2000000000000000100, -0.2550000000000004500 ) ) ;
#967 = COLOUR_RGB ( '',0.8509803921568627200, 0.8509803921568627200, 0.8509803921568627200 ) ;
#968 = CARTESIAN_POINT ( 'NONE',  ( -0.2550000000000000000, 0.2000000000000000100, -3.174999999999999800 ) ) ;
#969 = APPLICATION_CONTEXT ( 'automotive_design' ) ;
#970 = VECTOR ( 'NONE', #874, 1000.000000000000000 ) ;
#971 = ORIENTED_EDGE ( 'NONE', *, *, #1041, .F. ) ;
#972 = EDGE_CURVE ( 'NONE', #460, #1036, #75, .T. ) ;
#973 = LINE ( 'NONE', #444, #623 ) ;
#974 = PLANE ( 'NONE',  #172 ) ;
#975 = EDGE_CURVE ( 'NONE', #1052, #260, #1136, .T. ) ;
#976 = ORIENTED_EDGE ( 'NONE', *, *, #975, .F. ) ;
#977 = STYLED_ITEM ( 'NONE', ( #502 ), #494 ) ;
#978 = CARTESIAN_POINT ( 'NONE',  ( -3.175000000000000300, 0.2000000000000000100, -0.2550000000000000000 ) ) ;
#980 = SURFACE_STYLE_USAGE ( .BOTH. , #780 ) ;
#979 = CARTESIAN_POINT ( 'NONE',  ( -0.2550000000000003400, 0.2000000000000000100, 2.880551362713288800 ) ) ;
#981 = VECTOR ( 'NONE', #988, 1000.000000000000000 ) ;
#982 = FACE_OUTER_BOUND ( 'NONE', #567, .T. ) ;
#983 = UNCERTAINTY_MEASURE_WITH_UNIT (LENGTH_MEASURE( 1.000000000000000100E-005 ), #1101, 'distance_accuracy_value', 'NONE');
#984 =( NAMED_UNIT ( * ) SI_UNIT ( $, .STERADIAN. ) SOLID_ANGLE_UNIT ( ) );
#985 =( GEOMETRIC_REPRESENTATION_CONTEXT ( 3 ) GLOBAL_UNCERTAINTY_ASSIGNED_CONTEXT ( ( #48 ) ) GLOBAL_UNIT_ASSIGNED_CONTEXT ( ( #944, #373, #844 ) ) REPRESENTATION_CONTEXT ( 'NONE', 'WORKASPACE' ) );
#986 = CARTESIAN_POINT ( 'NONE',  ( 1.049464148982708600, 0.1999999999999999800, -0.2550000000000001700 ) ) ;
#987 =( NAMED_UNIT ( * ) PLANE_ANGLE_UNIT ( ) SI_UNIT ( $, .RADIAN. ) );
#988 = DIRECTION ( 'NONE',  ( -1.113906341594696500E-016, 0.0000000000000000000, 1.000000000000000000 ) ) ;
#989 = LINE ( 'NONE', #1221, #92 ) ;
#990 = VERTEX_POINT ( 'NONE', #1067 ) ;
#991 = COLOUR_RGB ( '',0.8509803921568627200, 0.8509803921568627200, 0.8509803921568627200 ) ;
#992 = CARTESIAN_POINT ( 'NONE',  ( -0.2550000000000000000, 0.0000000000000000000, -3.174999999999999800 ) ) ;
#993 = ORIENTED_EDGE ( 'NONE', *, *, #1113, .T. ) ;
#994 = COLOUR_RGB ( '',0.8509803921568627200, 0.8509803921568627200, 0.8509803921568627200 ) ;
#995 = VERTEX_POINT ( 'NONE', #978 ) ;
#996 = AXIS2_PLACEMENT_3D ( 'NONE', #775, #1066, #291 ) ;
#997 = DIRECTION ( 'NONE',  ( -0.0000000000000000000, -1.000000000000000000, -0.0000000000000000000 ) ) ;
#998 = EDGE_CURVE ( 'NONE', #995, #1073, #902, .T. ) ;
#999 = CIRCLE ( 'NONE', #558, 1.080000000000000300 ) ;
#1000 = CIRCLE ( 'NONE', #23, 0.1754902763107148200 ) ;
#1001 = EDGE_CURVE ( 'NONE', #782, #910, #641, .T. ) ;
#1002 =( NAMED_UNIT ( * ) SI_UNIT ( $, .STERADIAN. ) SOLID_ANGLE_UNIT ( ) );
#1003 = ADVANCED_FACE ( 'NONE', ( #611 ), #839, .T. ) ;
#1004 = AXIS2_PLACEMENT_3D ( 'NONE', #1104, #509, #217 ) ;
#1005 = FACE_OUTER_BOUND ( 'NONE', #28, .T. ) ;
#1006 = ORIENTED_EDGE ( 'NONE', *, *, #644, .F. ) ;
#1007 = FILL_AREA_STYLE ('',( #624 ) ) ;
#1008 = AXIS2_PLACEMENT_3D ( 'NONE', #366, #1043, #269 ) ;
#1009 = FACE_OUTER_BOUND ( 'NONE', #1092, .T. ) ;
#1010 = ADVANCED_FACE ( 'NONE', ( #159 ), #303, .F. ) ;
#1011 = VERTEX_POINT ( 'NONE', #1162 ) ;
#1012 = LINE ( 'NONE', #1090, #1245 ) ;
#1013 = COLOUR_RGB ( '',0.8509803921568627200, 0.8509803921568627200, 0.8509803921568627200 ) ;
#1014 = CARTESIAN_POINT ( 'NONE',  ( 0.0000000000000000000, 1.030000000000000000, 0.8215684478499190000 ) ) ;
#1015 = AXIS2_PLACEMENT_3D ( 'NONE', #118, #323, #587 ) ;
#1016 = EDGE_LOOP ( 'NONE', ( #1135, #419, #1184, #647 ) ) ;
#1017 = FACE_BOUND ( 'NONE', #915, .T. ) ;
#1018 = PRESENTATION_LAYER_ASSIGNMENT (  '', '', ( #948 ) ) ;
#1019 =( NAMED_UNIT ( * ) SI_UNIT ( $, .STERADIAN. ) SOLID_ANGLE_UNIT ( ) );
#1020 = VERTEX_POINT ( 'NONE', #402 ) ;
#1021 = ORIENTED_EDGE ( 'NONE', *, *, #683, .F. ) ;
#1022 = LINE ( 'NONE', #330, #270 ) ;
#1023 =( LENGTH_UNIT ( ) NAMED_UNIT ( * ) SI_UNIT ( .MILLI., .METRE. ) );
#1024 = VERTEX_POINT ( 'NONE', #986 ) ;
#1025 = DIRECTION ( 'NONE',  ( -0.0000000000000000000, -1.000000000000000000, -0.0000000000000000000 ) ) ;
#1026 =( NAMED_UNIT ( * ) SI_UNIT ( $, .STERADIAN. ) SOLID_ANGLE_UNIT ( ) );
#1027 = DIRECTION ( 'NONE',  ( 0.0000000000000000000, -0.0000000000000000000, 1.000000000000000000 ) ) ;
#1028 = MECHANICAL_DESIGN_GEOMETRIC_PRESENTATION_REPRESENTATION (  '', ( #959 ), #580 ) ;
#1029 = EDGE_CURVE ( 'NONE', #346, #138, #829, .T. ) ;
#1030 = DIRECTION ( 'NONE',  ( -0.0000000000000000000, 1.000000000000000000, 0.0000000000000000000 ) ) ;
#1031 = SURFACE_STYLE_FILL_AREA ( #349 ) ;
#1032 = ORIENTED_EDGE ( 'NONE', *, *, #909, .F. ) ;
#1033 = MECHANICAL_DESIGN_GEOMETRIC_PRESENTATION_REPRESENTATION (  '', ( #831 ), #49 ) ;
#1034 = EDGE_CURVE ( 'NONE', #293, #768, #1000, .T. ) ;
#1035 = VECTOR ( 'NONE', #758, 1000.000000000000000 ) ;
#1036 = VERTEX_POINT ( 'NONE', #288 ) ;
#1037 = VERTEX_POINT ( 'NONE', #5 ) ;
#1038 = SURFACE_STYLE_USAGE ( .BOTH. , #1148 ) ;
#1039 = ORIENTED_EDGE ( 'NONE', *, *, #479, .T. ) ;
#1040 = FILL_AREA_STYLE ('',( #1146 ) ) ;
#1041 = EDGE_CURVE ( 'NONE', #1037, #1254, #216, .T. ) ;
#1042 = PRESENTATION_LAYER_ASSIGNMENT (  '', '', ( #977 ) ) ;
#1043 = DIRECTION ( 'NONE',  ( 0.0000000000000000000, 0.0000000000000000000, -1.000000000000000000 ) ) ;
#1044 = MECHANICAL_DESIGN_GEOMETRIC_PRESENTATION_REPRESENTATION (  '', ( #124 ), #609 ) ;
#1045 = CARTESIAN_POINT ( 'NONE',  ( -0.2550000000000000000, 0.2000000000000000100, -3.174999999999999800 ) ) ;
#1046 = ORIENTED_EDGE ( 'NONE', *, *, #1114, .F. ) ;
#1047 = FACE_OUTER_BOUND ( 'NONE', #881, .T. ) ;
#1048 = ORIENTED_EDGE ( 'NONE', *, *, #492, .F. ) ;
#1049 = DIRECTION ( 'NONE',  ( -1.000000000000000000, 0.0000000000000000000, -0.0000000000000000000 ) ) ;
#1050 = VERTEX_POINT ( 'NONE', #878 ) ;
#1051 = FACE_OUTER_BOUND ( 'NONE', #46, .T. ) ;
#1052 = VERTEX_POINT ( 'NONE', #1087 ) ;
#1053 =( LENGTH_UNIT ( ) NAMED_UNIT ( * ) SI_UNIT ( .MILLI., .METRE. ) );
#1054 = DIRECTION ( 'NONE',  ( 0.0000000000000000000, 0.0000000000000000000, 1.000000000000000000 ) ) ;
#1056 =( NAMED_UNIT ( * ) SI_UNIT ( $, .STERADIAN. ) SOLID_ANGLE_UNIT ( ) );
#1055 =( LENGTH_UNIT ( ) NAMED_UNIT ( * ) SI_UNIT ( .MILLI., .METRE. ) );
#1057 = SURFACE_STYLE_USAGE ( .BOTH. , #78 ) ;
#1058 = CYLINDRICAL_SURFACE ( 'NONE', #84, 0.1754902763107148200 ) ;
#1059 = FILL_AREA_STYLE_COLOUR ( '', #742 ) ;
#1060 = FILL_AREA_STYLE ('',( #1159 ) ) ;
#1061 = EDGE_CURVE ( 'NONE', #728, #801, #631, .T. ) ;
#1063 = CARTESIAN_POINT ( 'NONE',  ( -0.2550000000000000000, 0.2000000000000000100, -3.174999999999999800 ) ) ;
#1062 = DIRECTION ( 'NONE',  ( -0.0000000000000000000, -1.000000000000000000, -0.0000000000000000000 ) ) ;
#1064 = ORIENTED_EDGE ( 'NONE', *, *, #1173, .T. ) ;
#1065 = ORIENTED_EDGE ( 'NONE', *, *, #479, .F. ) ;
#1066 = DIRECTION ( 'NONE',  ( 0.0000000000000000000, 0.0000000000000000000, 1.000000000000000000 ) ) ;
#1067 = CARTESIAN_POINT ( 'NONE',  ( 3.174999999999999800, 0.0000000000000000000, 0.2550000000000000000 ) ) ;
#1068 = ORIENTED_EDGE ( 'NONE', *, *, #252, .F. ) ;
#1069 = FILL_AREA_STYLE ('',( #763 ) ) ;
#1070 = AXIS2_PLACEMENT_3D ( 'NONE', #727, #152, #246 ) ;
#1071 = MECHANICAL_DESIGN_GEOMETRIC_PRESENTATION_REPRESENTATION (  '', ( #804 ), #1081 ) ;
#1072 = CIRCLE ( 'NONE', #365, 0.9300000000000002700 ) ;
#1073 = VERTEX_POINT ( 'NONE', #1183 ) ;
#1074 = FACE_OUTER_BOUND ( 'NONE', #1172, .T. ) ;
#1075 = DIRECTION ( 'NONE',  ( -1.000000000000000000, 0.0000000000000000000, 0.0000000000000000000 ) ) ;
#1077 = CARTESIAN_POINT ( 'NONE',  ( 0.0000000000000000000, 0.1999999999999999800, 0.0000000000000000000 ) ) ;
#1076 =( NAMED_UNIT ( * ) SI_UNIT ( $, .STERADIAN. ) SOLID_ANGLE_UNIT ( ) );
#1078 = DIRECTION ( 'NONE',  ( -1.000000000000000000, -0.0000000000000000000, 3.713021138648988300E-017 ) ) ;
#1079 = UNCERTAINTY_MEASURE_WITH_UNIT (LENGTH_MEASURE( 1.000000000000000100E-005 ), #1055, 'distance_accuracy_value', 'NONE');
#1080 = APPLICATION_PROTOCOL_DEFINITION ( 'draft international standard', 'automotive_design', 1998, #571 ) ;
#1081 =( GEOMETRIC_REPRESENTATION_CONTEXT ( 3 ) GLOBAL_UNCERTAINTY_ASSIGNED_CONTEXT ( ( #258 ) ) GLOBAL_UNIT_ASSIGNED_CONTEXT ( ( #307, #1100, #425 ) ) REPRESENTATION_CONTEXT ( 'NONE', 'WORKASPACE' ) );
#1082 =( NAMED_UNIT ( * ) SI_UNIT ( $, .STERADIAN. ) SOLID_ANGLE_UNIT ( ) );
#1083 = CIRCLE ( 'NONE', #37, 1.080000000000000300 ) ;
#1084 = SURFACE_SIDE_STYLE ('',( #854 ) ) ;
#1085 = SURFACE_STYLE_FILL_AREA ( #694 ) ;
#1086 = ORIENTED_EDGE ( 'NONE', *, *, #254, .T. ) ;
#1087 = CARTESIAN_POINT ( 'NONE',  ( 1.049464148982708600, 0.1999999999999999800, 0.2550000000000000000 ) ) ;
#1088 = EDGE_LOOP ( 'NONE', ( #396, #154, #19, #695, #437 ) ) ;
#1089 = STYLED_ITEM ( 'NONE', ( #388 ), #1010 ) ;
#1090 = CARTESIAN_POINT ( 'NONE',  ( 1.322618543079141700E-016, 1.050000000000000000, 1.080000000000000300 ) ) ;
#1091 = DIRECTION ( 'NONE',  ( 1.000000000000000000, -0.0000000000000000000, 1.224646799147353200E-016 ) ) ;
#1092 = EDGE_LOOP ( 'NONE', ( #667, #1121, #399, #549 ) ) ;
#1093 = PRESENTATION_LAYER_ASSIGNMENT (  '', '', ( #891 ) ) ;
#1094 = ORIENTED_EDGE ( 'NONE', *, *, #761, .F. ) ;
#1095 = SURFACE_STYLE_FILL_AREA ( #263 ) ;
#1096 = VECTOR ( 'NONE', #759, 1000.000000000000000 ) ;
#1097 = CARTESIAN_POINT ( 'NONE',  ( 1.230770033143090300E-016, 1.050000000000000000, -0.9300000000000002700 ) ) ;
#1098 = UNCERTAINTY_MEASURE_WITH_UNIT (LENGTH_MEASURE( 1.000000000000000100E-005 ), #1053, 'distance_accuracy_value', 'NONE');
#1099 = DIRECTION ( 'NONE',  ( -0.0000000000000000000, 1.000000000000000000, 0.0000000000000000000 ) ) ;
#1100 =( NAMED_UNIT ( * ) PLANE_ANGLE_UNIT ( ) SI_UNIT ( $, .RADIAN. ) );
#1101 =( LENGTH_UNIT ( ) NAMED_UNIT ( * ) SI_UNIT ( .MILLI., .METRE. ) );
#1102 = CIRCLE ( 'NONE', #845, 1.080000000000000300 ) ;
#1103 = ORIENTED_EDGE ( 'NONE', *, *, #842, .F. ) ;
#1104 = CARTESIAN_POINT ( 'NONE',  ( 0.0000000000000000000, 0.0000000000000000000, 0.0000000000000000000 ) ) ;
#1105 = STYLED_ITEM ( 'NONE', ( #1210 ), #701 ) ;
#1106 = CARTESIAN_POINT ( 'NONE',  ( 0.0000000000000000000, 0.9000000000000002400, 0.0000000000000000000 ) ) ;
#1107 = ORIENTED_EDGE ( 'NONE', *, *, #1173, .F. ) ;
#1108 = ORIENTED_EDGE ( 'NONE', *, *, #1180, .T. ) ;
#1109 = COLOUR_RGB ( '',0.8509803921568627200, 0.8509803921568627200, 0.8509803921568627200 ) ;
#1110 = CARTESIAN_POINT ( 'NONE',  ( 1.138921523207038900E-016, 0.9000000000000002400, -0.9300000000000002700 ) ) ;
#1111 = CARTESIAN_POINT ( 'NONE',  ( 0.0000000000000000000, 0.9000000000000002400, 0.0000000000000000000 ) ) ;
#1112 = PRESENTATION_STYLE_ASSIGNMENT (( #299 ) ) ;
#1113 = EDGE_CURVE ( 'NONE', #737, #403, #1149, .T. ) ;
#1114 = EDGE_CURVE ( 'NONE', #113, #293, #69, .T. ) ;
#1115 = MECHANICAL_DESIGN_GEOMETRIC_PRESENTATION_REPRESENTATION (  '', ( #891 ), #689 ) ;
#1116 = CIRCLE ( 'NONE', #132, 1.080000000000000300 ) ;
#1117 = VERTEX_POINT ( 'NONE', #309 ) ;
#1118 = CARTESIAN_POINT ( 'NONE',  ( -0.2550000000000002800, 1.050000000000000000, -1.049464148982708300 ) ) ;
#1119 =( GEOMETRIC_REPRESENTATION_CONTEXT ( 3 ) GLOBAL_UNCERTAINTY_ASSIGNED_CONTEXT ( ( #1098 ) ) GLOBAL_UNIT_ASSIGNED_CONTEXT ( ( #1053, #257, #85 ) ) REPRESENTATION_CONTEXT ( 'NONE', 'WORKASPACE' ) );
#1120 = AXIS2_PLACEMENT_3D ( 'NONE', #1186, #997, #1208 ) ;
#1121 = ORIENTED_EDGE ( 'NONE', *, *, #332, .T. ) ;
#1122 = FILL_AREA_STYLE ('',( #822 ) ) ;
#1123 = FACE_OUTER_BOUND ( 'NONE', #163, .T. ) ;
#1124 = VERTEX_POINT ( 'NONE', #314 ) ;
#1125 = CARTESIAN_POINT ( 'NONE',  ( 1.049464148982708600, 0.0000000000000000000, -0.2550000000000001700 ) ) ;
#1126 = FILL_AREA_STYLE_COLOUR ( '', #1253 ) ;
#1127 = FILL_AREA_STYLE_COLOUR ( '', #418 ) ;
#1128 = AXIS2_PLACEMENT_3D ( 'NONE', #88, #751, #1054 ) ;
#1129 = CIRCLE ( 'NONE', #1015, 0.1499999999999999700 ) ;
#1130 = FILL_AREA_STYLE ('',( #235 ) ) ;
#1131 = DIRECTION ( 'NONE',  ( 0.0000000000000000000, -0.0000000000000000000, 1.000000000000000000 ) ) ;
#1132 = EDGE_CURVE ( 'NONE', #990, #281, #1194, .T. ) ;
#1133 = CARTESIAN_POINT ( 'NONE',  ( 0.0000000000000000000, 1.050000000000000000, 0.9300000000000002700 ) ) ;
#1134 = CIRCLE ( 'NONE', #626, 1.080000000000000300 ) ;
#1135 = ORIENTED_EDGE ( 'NONE', *, *, #1041, .T. ) ;
#1136 = LINE ( 'NONE', #408, #573 ) ;
#1137 = STYLED_ITEM ( 'NONE', ( #709 ), #301 ) ;
#1138 = LINE ( 'NONE', #1045, #170 ) ;
#1139 = STYLED_ITEM ( 'NONE', ( #556 ), #794 ) ;
#1140 = COLOUR_RGB ( '',0.8509803921568627200, 0.8509803921568627200, 0.8509803921568627200 ) ;
#1141 = ORIENTED_EDGE ( 'NONE', *, *, #249, .T. ) ;
#1142 = ORIENTED_EDGE ( 'NONE', *, *, #767, .T. ) ;
#1143 = DIRECTION ( 'NONE',  ( -0.8660254037844376000, 0.0000000000000000000, -0.5000000000000020000 ) ) ;
#1144 = ORIENTED_EDGE ( 'NONE', *, *, #746, .T. ) ;
#1145 = AXIS2_PLACEMENT_3D ( 'NONE', #384, #779, #197 ) ;
#1146 = FILL_AREA_STYLE_COLOUR ( '', #702 ) ;
#1147 = AXIS2_PLACEMENT_3D ( 'NONE', #395, #1157, #1256 ) ;
#1148 = SURFACE_SIDE_STYLE ('',( #1198 ) ) ;
#1149 = LINE ( 'NONE', #679, #1262 ) ;
#1150 = DIRECTION ( 'NONE',  ( -0.0000000000000000000, 1.000000000000000000, 0.0000000000000000000 ) ) ;
#1151 = DIRECTION ( 'NONE',  ( 0.0000000000000000000, 0.0000000000000000000, 1.000000000000000000 ) ) ;
#1152 = CARTESIAN_POINT ( 'NONE',  ( 0.0000000000000000000, 0.0000000000000000000, 0.0000000000000000000 ) ) ;
#1153 = FILL_AREA_STYLE ('',( #108 ) ) ;
#1154 =( NAMED_UNIT ( * ) SI_UNIT ( $, .STERADIAN. ) SOLID_ANGLE_UNIT ( ) );
#1155 = FACE_OUTER_BOUND ( 'NONE', #718, .T. ) ;
#1156 = ORIENTED_EDGE ( 'NONE', *, *, #381, .T. ) ;
#1157 = DIRECTION ( 'NONE',  ( -0.0000000000000000000, 1.000000000000000000, 0.0000000000000000000 ) ) ;
#1158 = DIRECTION ( 'NONE',  ( 1.000000000000000000, 0.0000000000000000000, -1.113906341594696500E-016 ) ) ;
#1159 = FILL_AREA_STYLE_COLOUR ( '', #809 ) ;
#1160 = AXIS2_PLACEMENT_3D ( 'NONE', #262, #551, #1143 ) ;
#1161 = CIRCLE ( 'NONE', #298, 0.9300000000000002700 ) ;
#1162 = CARTESIAN_POINT ( 'NONE',  ( 1.322618543079141700E-016, 0.9000000000000002400, 1.080000000000000300 ) ) ;
#1164 = CARTESIAN_POINT ( 'NONE',  ( -3.175000000000000700, 0.0000000000000000000, 0.2550000000000000000 ) ) ;
#1163 = SURFACE_SIDE_STYLE ('',( #230 ) ) ;
#1165 = TOROIDAL_SURFACE ( 'NONE', #1176, 0.9300000000000002700, 0.1499999999999999900 ) ;
#1166 = DIRECTION ( 'NONE',  ( -0.0000000000000000000, 1.000000000000000000, 0.0000000000000000000 ) ) ;
#1168 = SURFACE_SIDE_STYLE ('',( #1179 ) ) ;
#1167 = DIRECTION ( 'NONE',  ( -0.0000000000000000000, 1.000000000000000000, 0.0000000000000000000 ) ) ;
#1169 = FILL_AREA_STYLE ('',( #390 ) ) ;
#1170 = UNCERTAINTY_MEASURE_WITH_UNIT (LENGTH_MEASURE( 1.000000000000000100E-005 ), #355, 'distance_accuracy_value', 'NONE');
#1171 = FILL_AREA_STYLE_COLOUR ( '', #947 ) ;
#1172 = EDGE_LOOP ( 'NONE', ( #272, #1039, #931, #651 ) ) ;
#1173 = EDGE_CURVE ( 'NONE', #952, #1037, #134, .T. ) ;
#1175 = DIRECTION ( 'NONE',  ( -0.0000000000000000000, 1.000000000000000000, 0.0000000000000000000 ) ) ;
#1174 = CARTESIAN_POINT ( 'NONE',  ( -3.175000000000000300, 0.0000000000000000000, -0.2550000000000000000 ) ) ;
#1176 = AXIS2_PLACEMENT_3D ( 'NONE', #1111, #47, #811 ) ;
#1177 = CYLINDRICAL_SURFACE ( 'NONE', #234, 0.1754902763107148200 ) ;
#1178 = VERTEX_POINT ( 'NONE', #615 ) ;
#1179 = SURFACE_STYLE_FILL_AREA ( #1069 ) ;
#1180 = EDGE_CURVE ( 'NONE', #40, #433, #318, .T. ) ;
#1181 = ORIENTED_EDGE ( 'NONE', *, *, #110, .T. ) ;
#1182 = PRESENTATION_LAYER_ASSIGNMENT (  '', '', ( #469 ) ) ;
#1183 = CARTESIAN_POINT ( 'NONE',  ( -3.175000000000000300, 0.0000000000000000000, -0.2550000000000000000 ) ) ;
#1184 = ORIENTED_EDGE ( 'NONE', *, *, #595, .F. ) ;
#1185 = CARTESIAN_POINT ( 'NONE',  ( -1.049464148982708600, 1.050000000000000000, -0.2550000000000000600 ) ) ;
#1186 = CARTESIAN_POINT ( 'NONE',  ( 0.0000000000000000000, 1.050000000000000000, 0.0000000000000000000 ) ) ;
#1187 = AXIS2_PLACEMENT_3D ( 'NONE', #656, #271, #1151 ) ;
#1188 = VECTOR ( 'NONE', #279, 1000.000000000000000 ) ;
#1189 = FACE_OUTER_BOUND ( 'NONE', #1016, .T. ) ;
#1190 = PLANE ( 'NONE',  #1224 ) ;
#1191 = ADVANCED_FACE ( 'NONE', ( #905 ), #1165, .T. ) ;
#1192 = CARTESIAN_POINT ( 'NONE',  ( -0.2550000000000002800, 0.1999999999999999800, -1.049464148982708300 ) ) ;
#1193 = CARTESIAN_POINT ( 'NONE',  ( 0.2550000000000000000, 0.1999999999999999800, 1.049464148982708600 ) ) ;
#1194 = LINE ( 'NONE', #413, #921 ) ;
#1195 = ADVANCED_FACE ( 'NONE', ( #105 ), #1058, .F. ) ;
#1196 = CARTESIAN_POINT ( 'NONE',  ( 0.0000000000000000000, 1.030000000000000000, 0.6460781715392042200 ) ) ;
#1197 = MECHANICAL_DESIGN_GEOMETRIC_PRESENTATION_REPRESENTATION (  '', ( #1105 ), #360 ) ;
#1198 = SURFACE_STYLE_FILL_AREA ( #1122 ) ;
#1199 = CARTESIAN_POINT ( 'NONE',  ( 1.138921523207038900E-016, -0.3199999999999999500, -0.9300000000000002700 ) ) ;
#1200 = EDGE_LOOP ( 'NONE', ( #256, #342, #39, #223 ) ) ;
#1201 = LINE ( 'NONE', #115, #864 ) ;
#1202 = PRODUCT_DEFINITION ( 'UNKNOWN', '', #544, #416 ) ;
#1203 = VECTOR ( 'NONE', #1220, 1000.000000000000000 ) ;
#1204 = PLANE ( 'NONE',  #705 ) ;
#1205 = EDGE_CURVE ( 'NONE', #1011, #527, #1129, .T. ) ;
#1206 = VERTEX_POINT ( 'NONE', #889 ) ;
#1207 = CARTESIAN_POINT ( 'NONE',  ( 1.322618543079141700E-016, 1.050000000000000000, 1.080000000000000300 ) ) ;
#1208 = DIRECTION ( 'NONE',  ( 0.0000000000000000000, 0.0000000000000000000, -1.000000000000000000 ) ) ;
#1209 =( NAMED_UNIT ( * ) PLANE_ANGLE_UNIT ( ) SI_UNIT ( $, .RADIAN. ) );
#1210 = PRESENTATION_STYLE_ASSIGNMENT (( #653 ) ) ;
#1211 = ORIENTED_EDGE ( 'NONE', *, *, #998, .F. ) ;
#1212 = CARTESIAN_POINT ( 'NONE',  ( 0.2550000000000000000, 0.0000000000000000000, 0.2550000000000000000 ) ) ;
#1213 = PRESENTATION_LAYER_ASSIGNMENT (  '', '', ( #935 ) ) ;
#1214 = ORIENTED_EDGE ( 'NONE', *, *, #1235, .T. ) ;
#1215 = CARTESIAN_POINT ( 'NONE',  ( -0.2550000000000003400, 0.0000000000000000000, 0.2550000000000000000 ) ) ;
#1216 = DIRECTION ( 'NONE',  ( 1.224646799147353200E-016, 0.0000000000000000000, -1.000000000000000000 ) ) ;
#1217 = VERTEX_POINT ( 'NONE', #1097 ) ;
#1218 = ADVANCED_BREP_SHAPE_REPRESENTATION ( 'ERA-3+', ( #617, #996 ), #149 ) ;
#1219 = LINE ( 'NONE', #18, #685 ) ;
#1220 = DIRECTION ( 'NONE',  ( 0.0000000000000000000, 1.000000000000000000, 0.0000000000000000000 ) ) ;
#1221 = CARTESIAN_POINT ( 'NONE',  ( -0.2550000000000003400, 1.050000000000000000, 1.049464148982708600 ) ) ;
#1222 = AXIS2_PLACEMENT_3D ( 'NONE', #186, #1075, #590 ) ;
#1223 = DIRECTION ( 'NONE',  ( 0.0000000000000000000, 0.0000000000000000000, 1.000000000000000000 ) ) ;
#1224 = AXIS2_PLACEMENT_3D ( 'NONE', #803, #429, #813 ) ;
#1225 = DIRECTION ( 'NONE',  ( 3.713021138648988300E-017, -0.0000000000000000000, 1.000000000000000000 ) ) ;
#1226 =( NAMED_UNIT ( * ) SI_UNIT ( $, .STERADIAN. ) SOLID_ANGLE_UNIT ( ) );
#1227 = ORIENTED_EDGE ( 'NONE', *, *, #99, .T. ) ;
#1228 = FILL_AREA_STYLE ('',( #153 ) ) ;
#1229 = CARTESIAN_POINT ( 'NONE',  ( -3.175000000000000300, 0.2000000000000000100, -0.2550000000000000000 ) ) ;
#1230 = ORIENTED_EDGE ( 'NONE', *, *, #1001, .F. ) ;
#1231 = SURFACE_STYLE_USAGE ( .BOTH. , #57 ) ;
#1232 = SURFACE_SIDE_STYLE ('',( #1240 ) ) ;
#1233 = LINE ( 'NONE', #1174, #734 ) ;
#1234 = EDGE_CURVE ( 'NONE', #40, #346, #35, .T. ) ;
#1235 = EDGE_CURVE ( 'NONE', #516, #162, #535, .T. ) ;
#1236 = SURFACE_STYLE_FILL_AREA ( #682 ) ;
#1237 = CARTESIAN_POINT ( 'NONE',  ( 0.0000000000000000000, 0.2000000000000000100, 0.0000000000000000000 ) ) ;
#1238 =( GEOMETRIC_REPRESENTATION_CONTEXT ( 3 ) GLOBAL_UNCERTAINTY_ASSIGNED_CONTEXT ( ( #757 ) ) GLOBAL_UNIT_ASSIGNED_CONTEXT ( ( #873, #393, #883 ) ) REPRESENTATION_CONTEXT ( 'NONE', 'WORKASPACE' ) );
#1239 = ORIENTED_EDGE ( 'NONE', *, *, #998, .T. ) ;
#1240 = SURFACE_STYLE_FILL_AREA ( #528 ) ;
#1241 =( NAMED_UNIT ( * ) PLANE_ANGLE_UNIT ( ) SI_UNIT ( $, .RADIAN. ) );
#1242 = VERTEX_POINT ( 'NONE', #1193 ) ;
#1243 = FILL_AREA_STYLE_COLOUR ( '', #1013 ) ;
#1244 = EDGE_CURVE ( 'NONE', #1050, #838, #893, .T. ) ;
#1245 = VECTOR ( 'NONE', #33, 1000.000000000000000 ) ;
#1246 = PRESENTATION_STYLE_ASSIGNMENT (( #188 ) ) ;
#1247 = PRESENTATION_LAYER_ASSIGNMENT (  '', '', ( #1105 ) ) ;
#1248 =( NAMED_UNIT ( * ) SI_UNIT ( $, .STERADIAN. ) SOLID_ANGLE_UNIT ( ) );
#1249 = PRESENTATION_LAYER_ASSIGNMENT (  '', '', ( #504 ) ) ;
#1250 = ORIENTED_EDGE ( 'NONE', *, *, #454, .F. ) ;
#1251 = EDGE_LOOP ( 'NONE', ( #955, #357, #204, #1239 ) ) ;
#1252 = AXIS2_PLACEMENT_3D ( 'NONE', #277, #91, #863 ) ;
#1253 = COLOUR_RGB ( '',0.8509803921568627200, 0.8509803921568627200, 0.8509803921568627200 ) ;
#1254 = VERTEX_POINT ( 'NONE', #411 ) ;
#1256 = DIRECTION ( 'NONE',  ( 0.0000000000000000000, -0.0000000000000000000, 1.000000000000000000 ) ) ;
#1255 = DIRECTION ( 'NONE',  ( 0.0000000000000000000, 0.0000000000000000000, 1.000000000000000000 ) ) ;
#1257 =( NAMED_UNIT ( * ) SI_UNIT ( $, .STERADIAN. ) SOLID_ANGLE_UNIT ( ) );
#1258 = AXIS2_PLACEMENT_3D ( 'NONE', #214, #128, #220 ) ;
#1259 = VECTOR ( 'NONE', #1255, 1000.000000000000000 ) ;
#1260 = EDGE_CURVE ( 'NONE', #750, #768, #428, .T. ) ;
#1261 =( NAMED_UNIT ( * ) PLANE_ANGLE_UNIT ( ) SI_UNIT ( $, .RADIAN. ) );
#1262 = VECTOR ( 'NONE', #296, 1000.000000000000000 ) ;
#1263 = CARTESIAN_POINT ( 'NONE',  ( -3.175000000000000300, 0.2000000000000000100, -0.2550000000000000000 ) ) ;
#1264 = DIRECTION ( 'NONE',  ( -8.503546450866701300E-016, 0.0000000000000000000, 1.000000000000000000 ) ) ;
#1265 = ORIENTED_EDGE ( 'NONE', *, *, #492, .T. ) ;
ENDSEC;
END-ISO-10303-21;
